<svg width="334" height="250" viewBox="0 0 334 250" fill="none" xmlns="http://www.w3.org/2000/svg">
<g id="ReadingSideDoodle">
<g id="Group">
<g id="Group_2">
<path id="Vector" fill-rule="evenodd" clip-rule="evenodd" d="M240.612 184.167C239.142 185.867 236.971 187.129 235.305 188.684C233.555 190.317 231.657 191.744 229.914 193.357C222.227 183.962 211.697 178.202 202.575 170.406C198.251 166.71 195.064 161.696 192.733 156.551C191.537 153.913 190.654 151.198 189.963 148.389C189.652 147.123 189.348 145.862 189.144 144.579C188.898 143.025 188.834 142.893 187.786 141.68C187.335 141.158 186.461 139.633 185.577 139.801C184.833 139.943 183.473 142.207 183.003 142.766C180.742 145.456 178.551 148.227 176.171 150.813C172.53 154.769 169.215 158.663 165.835 162.856C158.919 171.435 151.46 179.511 143.932 187.584C143.374 188.182 142.072 189.938 141.27 190.174C140.295 190.461 138.71 189.264 137.728 188.596C135.357 186.982 133.489 184.984 131.462 182.984C127.507 179.08 124.829 173.601 123.028 168.387C121.949 165.266 121.248 162.031 120.135 158.921C119.671 157.625 118.62 156.032 119.154 154.903C119.313 154.566 120.324 153.672 120.681 153.604C121.103 153.523 121.806 154.101 121.953 154.061C123.353 153.678 122.576 152.213 123.409 151.424C123.881 150.977 126.281 151.043 126.998 150.797C129.619 149.898 131.97 148.183 134.448 147.159C144.82 142.874 155.318 138.706 164.272 131.708C166.594 129.893 168.137 128.53 170.908 127.357C173.708 126.172 176.523 125.115 179.38 124.08C181.901 123.168 184.436 122.312 187.04 121.658C189.856 120.951 193.85 120.054 196.663 120.965C202.189 122.754 203.973 127.307 206.173 132.109C209.15 138.606 212.749 144.755 216.651 150.735C224.158 162.242 233.287 172.567 240.612 184.167Z" fill="#44CBB1"/>
<g id="Group_3">
<path id="Vector_2" fill-rule="evenodd" clip-rule="evenodd" d="M74.2188 82.4421C73.9148 82.2878 71.5411 83.254 71.1427 83.4018C69.5512 83.9923 68.0522 84.9734 66.5528 85.7716C67.7019 87.17 68.8513 88.5688 70.0001 89.9675C71.1264 87.2048 72.574 84.9252 74.2188 82.4421ZM75.0024 99.6313C74.6114 99.6752 77.9122 107.607 78.2976 108.498C79.7003 111.737 81.1729 114.945 82.5942 118.176C83.9711 121.307 85.7179 124.188 87.4776 127.113C88.9828 129.614 90.531 133.497 92.8015 135.349C91.3679 128.989 91.5567 121.677 87.4448 116.336C83.1824 110.8 78.9682 105.394 75.0024 99.6313ZM240.612 184.449C234.243 174.363 226.27 165.44 219.628 155.534C215.909 149.987 212.289 144.369 209.158 138.465C206.881 134.17 205.466 128.042 201.949 124.758C200.399 123.312 198.743 121.896 196.663 121.247C193.817 120.361 189.899 121.24 187.04 121.941C181.712 123.247 176.507 125.276 171.461 127.406C166.342 129.567 161.975 133.449 157.35 136.567C152.388 139.913 147.018 142.35 141.459 144.483C136.62 146.341 132.314 149.008 127.5 150.878C126.54 151.251 124.583 151.196 123.778 151.682C122.911 152.205 123.252 153.75 122.2 154.32C121.725 154.577 121.567 153.645 121.202 153.66C120.756 153.679 120.349 154.202 119.92 154.534C118.17 155.884 119.242 156.784 119.935 158.641C122.193 164.693 123.406 170.851 126.577 176.564C129.184 181.261 132.914 185.469 137.307 188.578C137.975 189.051 140.153 190.885 140.938 190.762C141.644 190.653 143.08 188.776 143.568 188.266C145.78 185.953 147.802 183.465 150.012 181.148C153.428 177.568 156.717 173.891 160.032 170.262C163.88 166.049 167.286 161.275 170.752 156.774C172.346 154.703 174.399 153.016 176.171 151.095C178.554 148.513 180.742 145.738 183.003 143.049C183.687 142.235 184.832 140.153 185.895 140.178C186.64 140.195 187.953 141.948 188.343 142.498C189.791 144.54 189.784 148.229 190.504 150.779C192.261 156.997 195.43 163.069 199.775 167.867C204.096 172.638 209.631 176.031 214.742 179.866C220.278 184.021 225.524 188.273 229.914 193.64C231.657 192.026 233.555 190.599 235.305 188.966C236.971 187.411 239.142 186.15 240.612 184.449ZM158.624 212.984C159.862 212.997 161.959 213.759 163.067 213.3C159.781 209.664 156.763 206.545 152.606 203.88C148.292 201.115 143.992 198.375 139.802 195.426C131.358 189.483 125.147 182.434 121.62 172.536C120.711 169.987 120.103 167.314 119.437 164.694C119.079 163.283 118.366 156.681 117.156 156.111C116.439 155.774 111.041 159.567 110.186 160.039C108.187 161.145 106.18 162.003 104.113 162.868C99.67 164.728 95.0896 166.147 90.378 167.332C84.7293 168.752 80.8816 166.402 77.3823 161.962C73.4122 156.925 70.113 151.242 66.4832 145.952C64.8324 143.546 63.4649 141.144 62.2459 138.491C61.448 136.754 58.2836 132.07 59.377 130.22C62.4965 132.595 63.6189 137.317 65.7439 140.497C68.3923 144.46 71.377 148.197 74.0392 152.157C76.2778 155.486 78.5616 159.521 81.8689 161.914C84.7781 164.02 87.5418 163.372 90.6726 162.426C94.4672 161.28 98.4005 160.715 102.119 159.292C106.144 157.754 109.951 155.571 113.878 153.791C115.708 152.961 117.9 152.489 119.625 151.454C121.111 150.563 120.89 150.092 120.999 148.194C121.126 145.98 121.273 143.763 121.371 141.547C121.437 140.058 120.632 138.038 121.178 136.927C116.72 137.7 112.364 138.735 107.937 139.65C105.514 140.152 103.177 140.772 100.729 141.165C99.7953 141.316 98.5196 141.311 97.684 141.718C97.0173 141.526 96.6775 141.648 96.6645 142.083C96.6326 142.319 96.5821 142.552 96.5128 142.78C95.1459 143.402 94.351 142.068 93.1655 140.789C91.7026 139.21 90.6072 137.432 89.5339 135.577C87.1342 131.429 84.3683 127.528 82.1476 123.264C79.8842 118.916 78.046 114.262 76.127 109.751C74.3666 105.613 73.2393 101.138 71.294 97.0981C70.4259 95.2947 69.3256 93.8035 68.0408 92.28C66.9806 91.0229 65.3494 88.311 63.766 87.7335C63.3474 87.5808 62.2511 87.8373 61.7755 87.8035C60.8276 87.7358 59.9828 87.3878 59.0128 87.464C56.9125 87.6283 54.6228 88.9565 52.9444 90.1241C54.0291 91.0909 56.7423 92.266 54.7934 94.0076C52.9021 95.6983 51.8575 92.6655 51.1358 91.3367C47.7374 94.1274 48.2286 97.9753 47.836 101.918C47.631 103.977 47.0916 106.004 46.7436 108.032C46.4929 109.491 46.6687 111.001 46.5971 112.491C46.4145 116.277 46.0339 119.901 46.0518 123.634C46.072 127.624 46.3438 131.478 46.6632 135.439C47.2006 142.108 48.4321 148.78 49.488 155.396C50.0821 159.115 50.8953 162.728 51.6847 166.387C52.5805 170.54 54.2377 174.473 55.1671 178.615C56.114 177.411 56.8263 177.405 58.3578 177.565C59.5359 177.688 60.3272 177.407 60.2582 179.042C60.2136 180.103 59.2781 180.913 58.2429 181.098C56.893 181.339 56.4343 180.666 55.7387 179.643C55.5759 181.58 56.878 183.604 57.393 185.495C57.8803 187.287 58.2032 189.043 59.0222 190.759C59.8214 192.432 60.5056 194.082 61.3142 195.739C61.6866 196.502 62.0349 197.276 62.4115 198.037C62.602 198.422 62.8263 198.952 63.1104 199.277C63.7771 200.038 63.671 199.669 64.4513 200.102C66.1511 201.047 65.5128 200.811 65.5525 202.761C65.5912 204.685 66.5776 206.098 68.1593 207.179C71.5151 209.473 74.825 210.111 78.6401 211.27C82.1947 212.35 85.9389 213.277 89.7029 213.256C94.3129 213.23 98.8617 212.626 103.472 212.565C108.558 212.497 113.692 212.525 118.768 212.701C120.859 212.773 122.801 212.866 124.819 213.4C127.163 214.02 129.431 213.774 131.847 213.68C137.001 213.48 142.333 213.081 147.42 213.045C151.083 213.019 154.947 212.763 158.624 212.984ZM292.279 214.982C293.195 215.466 295.249 215.268 296.17 215.133C297.793 214.897 297.967 214.253 298.997 212.806C300.769 210.315 302.207 207.928 303.25 205.042C305.246 199.517 306.06 193.866 306.936 188.087C307.91 181.665 306.132 175.01 305.496 168.632C305.35 167.169 305.15 165.719 304.919 164.267C304.78 163.399 304.744 160.445 304.173 159.693C303.075 158.249 297.971 159.414 295.964 159.545C290.363 159.911 284.724 159.997 279.125 160.06C276.14 160.094 273.138 160.219 270.182 160.242C268.825 160.253 267.498 160.185 266.136 160.053C265.68 160.009 265.235 159.904 264.776 159.879C263.204 159.792 263.322 159.564 262.916 160.956C262.205 163.394 262.752 166.496 262.565 169.026C262.315 172.408 262.18 175.837 262.242 179.226C262.299 182.358 262.192 185.482 262.309 188.62C262.358 189.92 262.5 190.98 262.843 192.221C263.231 193.624 263.657 196.903 264.622 197.874C264.732 197.984 265.553 197.727 265.771 198.002C266.106 198.426 266.045 199.324 266.275 199.598C267.021 200.485 268.562 200.555 269.68 200.954C272.748 202.048 275.563 203.236 278.455 204.711C281.038 206.029 285.204 207.151 286.757 209.751C287.469 210.943 287.566 212.515 288.22 213.745C288.966 215.146 287.474 214.414 289.301 214.982C290.124 215.238 291.435 214.982 292.279 214.982ZM19.8975 199.136C19.6651 202.372 17.8425 205.454 17.2081 208.635C16.9112 210.124 16.4076 211.588 16.0587 213.069C15.724 214.49 14.5151 216.172 14.6375 217.578C19.0997 215.988 23.6196 215.588 28.2833 215.159C32.7035 214.753 37.3731 214.591 41.7563 214.589C46.2227 214.587 50.9985 214.15 55.5974 214.083C60.407 214.012 65.2892 213.887 70.0291 213.389C67.5505 211.553 64.4493 209.829 62.6192 207.275C60.6296 204.499 59.5964 201.02 57.8458 198.091C54.3328 192.211 52.0994 184.916 50.2579 178.311C46.5401 164.977 42.3855 151.889 41.3842 138.058C39.4786 139.034 37.9659 142.82 37.0118 144.706C35.794 147.113 35.1563 149.722 34.3647 152.281C32.7345 157.551 31.6062 163.015 29.6101 168.235C25.795 178.213 23.3429 188.964 19.8975 199.136ZM262.122 121.423C262.947 127.386 264.677 133.427 264.744 139.462C264.758 140.79 264.533 142.265 264.81 143.574C265.106 144.972 266.067 146.207 266.622 147.536C267.503 149.645 269.733 153.967 267.582 155.754C267.538 154.058 265.987 151.905 265.205 150.422C264.027 148.188 262.479 146.145 261.202 143.967C258.529 139.406 255.534 134.944 252.089 130.924C248.733 127.008 244.866 123.534 241.308 119.805C240.239 118.685 231.663 107.901 231.322 108.052C233.982 118.31 238.504 127.236 244.692 135.825C247.727 140.036 251.368 142.807 255.062 146.374C258.138 149.344 263.935 152.521 262.872 157.388C267.68 156.926 272.456 156.188 277.308 156.188C276.511 150.047 275.9 144.003 274.475 137.963C272.858 131.105 271.762 124.041 270.394 117.122C268.997 110.058 266.629 103.219 265.155 96.169C263.744 89.4177 262.532 82.6785 261.497 75.852C260.642 79.6345 260.958 83.7892 260.654 87.6485C260.344 91.5916 260.374 95.462 260.478 99.4281C260.669 106.795 261.454 114.073 262.122 121.423ZM282.957 86.2996C282.984 83.1462 283.595 80.0356 283.783 76.8897C283.841 75.9246 284.803 69.3396 283.906 68.9959C283.169 70.6033 282.997 72.6602 282.327 74.3468C281.658 76.0317 280.763 77.6368 280.122 79.3334C278.731 83.0089 278.251 87.1677 278.101 91.0753C277.762 99.9138 277.587 108.733 278.181 117.571C278.436 121.359 278.631 125.154 278.562 128.95C278.485 133.127 277.845 136.752 278.622 140.895C279.391 144.997 279.874 149.082 280.13 153.245C280.31 156.166 280.382 155.959 283.169 155.754C285.181 155.605 287.213 155.764 289.228 155.672C288.286 144.286 288.132 132.877 286.627 121.536C285.859 115.749 285.839 109.88 284.885 104.115C284.411 101.251 283.616 98.4454 283.159 95.5785C282.668 92.5004 282.91 89.4015 282.957 86.2996ZM79.1456 79.1345C84.5112 79.5994 90.2185 81.2035 95.7182 80.1443C94.8116 79.7771 92.4392 79.2706 93.5069 77.8214C94.5925 76.3477 96.422 78.2169 97.5047 78.0239C98.1723 77.9047 99.6476 75.114 100.059 74.5362C100.993 73.2231 101.106 72.9942 102.785 72.6576C104.412 72.3321 104.781 72.6847 104.987 71.0671C105.223 69.2071 104.58 67.116 104.644 65.214C104.781 61.1192 106.102 57.5284 107.331 53.6759C102.108 54.8123 96.9998 56.1599 91.6586 56.8923C89.3754 57.2055 85.8233 57.9278 83.7491 56.3757C83.2097 55.9721 83.296 55.4272 82.8546 54.9594C82.1143 54.1746 80.7413 53.3627 79.6915 53.1391C73.2309 51.7638 72.6007 60.9737 75.8383 64.42C76.6492 65.2836 77.7774 65.7101 78.6078 66.5014C79.7162 67.5567 79.8071 68.6684 79.9688 70.2794C80.2722 73.3002 79.8601 76.3328 78.5714 79.0961L79.1456 79.1345ZM157.546 122.614C159.453 122.976 161.443 122.894 163.356 123.203C164.035 123.312 166.072 123.695 166.669 123.298C167.581 122.692 167.905 120.467 168.337 119.431C169.095 117.609 170.168 116.02 170.892 114.165C173.847 106.588 176.604 98.9799 180.178 91.6612C178.808 91.3051 177.756 91.2911 176.375 91.1072C174.937 90.9155 173.633 90.0649 172.261 89.6993C170.956 89.352 169.59 89.4405 168.297 89.0365C167.585 88.8142 166.974 88.3197 166.273 88.1469C165.154 87.8718 163.848 87.711 163.183 88.4454C162.501 89.1987 162.261 91.2641 161.89 92.2371C160.902 94.8292 159.754 97.3308 158.926 99.9825C158.179 102.374 157.469 104.74 156.812 107.154C156.117 109.702 154.748 111.802 153.914 114.235C153.28 116.088 152.681 117.982 152.586 119.957C152.494 121.885 152.214 122.007 154.141 122.315C155.114 122.47 156.63 123.049 157.546 122.614ZM283.031 212.821C283.527 213.053 283.996 213.022 284.435 212.729C280.129 210.91 275.94 208.387 271.447 207.139C267.232 205.969 263.136 204.57 259.076 203.129C255.776 201.958 252.81 201.046 249.828 198.985C248.017 197.733 246.409 196.327 245.164 194.498C243.779 192.462 243.471 189.565 241.971 187.732C239.946 189.956 237.568 191.639 235.172 193.406C234.344 194.018 232.356 195.35 232.072 196.296C231.714 197.49 232.673 198.632 233.147 199.84C234.36 202.934 234.954 206.026 235.612 209.242C235.876 210.531 236.446 212.469 237.505 213.009C238.469 213.5 241.261 213.143 242.461 213.052C248.721 212.578 254.87 212.092 261.167 212.524C268.294 213.013 275.923 213.35 283.031 212.821ZM295.534 155.493C296.671 155.497 297.783 155.355 298.916 155.355C298.262 152.3 299.791 148.347 300.334 145.297C300.941 141.886 301.402 138.359 301.807 134.92C302.66 127.678 303.046 120.523 303.057 113.228C303.068 106.168 304.353 99.7169 306.153 92.9304C308.086 85.642 311.251 79.0877 313.869 72.0587C310.998 73.5763 309.409 77.1274 307.9 79.8422C305.993 83.2748 304.723 87.0756 303.944 90.9291C302.442 98.363 300.794 105.819 299.061 113.241C297.256 120.969 296.195 128.767 294.127 136.431C293.119 140.169 291.747 144.767 291.671 148.622C291.64 150.216 291.159 153.555 291.882 154.94C292.558 156.236 294.052 155.625 295.534 155.493ZM123.805 145.905C123.745 146.699 123.688 147.454 123.547 148.238C125.123 148.223 127.119 146.588 128.47 145.854C130.117 144.959 131.765 143.973 133.376 143.074C136.484 141.339 140.014 140.195 143.333 138.769C147.146 137.131 150.651 135.152 154.298 133.18C155.571 132.491 164.726 128.523 164.572 127.439C162.562 127.372 160.553 127.305 158.542 127.239C156.819 127.181 154.151 127.571 152.501 127.038C151.597 126.746 150.582 125.672 150.241 124.83C149.904 123.997 150.663 120.168 150.221 119.924C147.972 122.22 146.558 125.273 144.547 127.75C142.324 130.488 139.453 132.087 136.288 133.542C132.792 135.15 129.175 136.394 125.603 137.771C124.096 138.352 124.126 138.684 123.995 140.336C123.848 142.182 123.864 144.054 123.805 145.905ZM305.428 215.358C309.217 215.765 313.1 215.533 316.918 215.85C318.307 215.966 320.233 216.137 318.836 218.002C317.956 219.177 315.136 218.8 313.857 218.881C310.423 219.1 306.787 218.982 303.345 218.931C302.621 218.921 301.82 218.705 301.088 218.754C300.242 218.81 299.23 219.418 298.459 219.413C297.984 219.41 297.814 218.909 297.405 218.863C296.512 218.763 295.621 218.69 294.721 218.69C281.117 218.693 267.701 218.42 254.131 218.405C247.642 218.398 241.05 218.286 234.564 217.982C233.202 217.917 225.445 218.196 225.66 215.744C225.77 214.481 228.302 214.303 229.226 214.168C229.91 214.069 230.621 214.085 231.306 214.048C233.129 213.95 233.927 214.389 233.542 212.395C232.084 204.832 229.472 198.582 223.89 193.145C219.325 188.699 213.829 184.665 208.659 180.953C202.382 176.444 197.289 171.703 193.563 164.804C191.386 160.775 189.564 156.656 188.446 152.202C188.044 150.599 188.034 148.777 187.541 147.232C187.162 146.042 186.297 145.21 185.788 143.978C179.543 154.41 171.265 163.137 163.675 172.543C160.049 177.036 155.912 181.304 151.579 185.213C150.293 186.373 149.093 187.585 147.893 188.833C146.889 189.878 145.295 190.807 144.447 191.966C143.634 193.078 143.834 193.025 145.072 193.908C146.708 195.075 148.511 196.045 150.173 197.183C152.829 199.002 155.729 200.539 158.104 202.729C160.672 205.096 162.916 207.839 165.162 210.509C166.658 212.289 168.622 214.572 168.998 216.822C169.122 217.567 169.596 219.408 168.971 219.953C168.437 220.419 168.491 220.242 167.828 219.958C166.96 219.586 166.704 218.731 165.643 218.324C162.929 217.282 159.644 217.64 156.819 217.627C153.994 217.615 151.145 217.932 148.321 217.92C141.872 217.894 135.56 218.416 129.112 218.696C122.265 218.994 115.333 218.28 108.508 218.381C103.452 218.456 98.2602 218.078 93.0639 218.359C90.391 218.503 87.766 218.169 85.1599 218.131C81.7478 218.082 78.2436 218.546 74.8022 218.612C69.1537 218.721 63.5743 218.721 57.8914 218.857C45.6674 219.149 33.5095 219.451 21.2784 219.645C19.6469 219.671 17.8608 219.615 16.2485 219.799C14.5372 219.994 15.4207 220.358 14.2465 220.974C10.9594 222.698 11.7185 216.306 11.7973 215.049C12.2198 208.312 13.9301 201.705 15.9854 195.309C17.9353 189.243 19.5183 182.894 21.1697 176.697C22.9773 169.914 25.3324 163.409 27.4711 156.692C29.6625 149.81 31.4467 142.66 35.4268 136.559C36.3334 135.17 37.2703 133.675 38.7286 132.799C40.3634 131.817 40.4337 132.39 40.4324 130.593C40.4314 128.9 40.5356 126.639 40.1362 125.024C39.7752 123.565 39.8308 124.43 39.018 123.382C38.3565 122.529 37.6645 121.946 37.1899 120.911C34.2745 123.867 27.601 122.307 24.7843 120.179C21.3367 117.573 18.7107 113.178 17.7485 108.992C16.9757 105.63 17.9239 99.2221 21.6446 97.6056C23.4584 96.8175 30.1205 96.2218 30.3871 93.6534C30.5245 92.3276 28.1798 90.4633 27.6388 89.3233C26.6362 87.2113 25.6733 84.4021 25.3946 82.087C24.8503 77.5681 26.9018 72.5151 30.1697 69.4627C36.1645 63.863 46.7123 60.9893 54.4236 64.5421C52.794 58.3171 51.8103 52.947 52.6309 46.4718C53.338 40.8933 56.6293 37.7722 61.1583 34.9936C68.8868 30.2514 79.3966 28.3796 88.2335 29.7586C90.2416 30.072 92.1687 30.7442 94.0281 31.2791C96.7293 32.0561 99.963 31.7973 102.513 33.0597C104.363 33.9747 105.767 35.7976 107.391 37.0147C109.287 38.4356 110.863 40.5564 112.18 42.5177C114.997 46.7117 113.897 54.4955 111.539 58.7055C111.033 59.6085 110.408 60.3686 109.572 60.9848C108.701 61.6261 107.373 61.8256 106.924 62.6573C105.774 64.7879 106.883 69.4002 107.037 71.7029C107.215 74.3767 105.863 76.3852 102.831 76.5984C101.078 76.7221 101.022 75.7045 100.182 77.7983C99.6375 79.1554 99.143 80.6339 98.3575 81.878C96.738 84.4421 93.7719 84.1918 91.0701 84.1225C87.9425 84.0418 84.8617 83.5476 81.7325 83.2358C82.559 85.8839 84.8214 87.9392 86.2341 90.2983C88.1443 93.489 89.294 96.1339 89.6046 99.8513C89.8429 102.707 89.3285 104.963 87.3741 107.089C86.5652 107.969 85.8481 108.012 86.0489 109.027C86.1713 109.646 87.242 110.667 87.6209 111.162C88.6231 112.469 89.7869 113.669 90.669 115.065C94.0636 120.437 95.0662 128.625 95.0746 134.879C95.075 135.165 95.228 135.775 95.1013 136.072C95.0076 136.291 94.2953 136.984 94.2849 137.044C94.1456 137.848 94.9295 139.226 96.1596 139.363C97.4516 139.506 99.8178 138.427 101.02 138.073C102.943 137.506 104.903 137.088 106.822 136.505C109.921 135.565 113.006 134.815 116.157 134.078C117.581 133.745 119.012 133.468 120.441 133.157C122.068 132.802 122.824 132.118 123.663 133.773C124.384 135.194 123.936 135.451 125.681 134.735C127.414 134.024 129.107 133.143 130.799 132.34C133.782 130.925 137.336 129.663 139.91 127.573C144.203 124.087 145.793 118.536 149.902 114.837C151.046 113.807 151.729 113.789 152.452 112.362C153.226 110.835 153.626 108.877 154.033 107.234C154.746 104.358 155.253 101.471 155.9 98.5977C156.706 95.0177 158.447 91.7755 159.718 88.3608C160.213 87.0304 160.469 85.3393 161.268 84.1436C161.479 83.8266 161.884 83.6479 162.049 83.3855C162.617 82.4848 162.611 82.2374 162.758 81.1537C163.446 76.0903 166.469 78.754 169.772 79.9151C171.163 80.4044 177.771 83.5772 175.248 85.6873C178.256 86.56 183.073 86.0857 183.033 90.3962C183.012 92.6049 181.691 94.9675 180.982 97.0349C180.352 98.8705 179.743 100.713 179.104 102.546C177.702 106.561 176.002 110.455 174.635 114.482C174.011 116.317 173.497 118.196 172.629 119.928C171.864 121.456 170.011 123.14 169.705 124.811C177.72 121.391 185.136 116.447 194.107 116.762C198.036 116.9 201.601 118.552 203.77 122.006C206.49 126.335 208.28 131.182 210.939 135.552C220.61 151.447 232.145 165.887 242.762 181.124C243.578 182.295 244.627 183.402 244.91 184.849C245.094 185.793 244.736 186.737 244.957 187.644C245.417 189.529 247.737 191.882 249.311 192.965C252.327 195.041 257.231 197.969 260.995 197.71C258.632 192.033 258.664 185.813 258.774 179.757C258.878 174.005 259.5 168.299 260.238 162.606C260.405 161.318 260.55 160.124 260.92 158.875C261.345 157.443 261.928 157.579 260.656 156.291C258.698 154.309 256.368 152.678 254.394 150.671C250.124 146.33 245.748 142.928 242.387 137.745C239.191 132.815 235.819 127.742 233.454 122.344C231.018 116.786 230.044 110.851 228.835 104.965C228.345 102.577 226.556 99.9102 226.915 97.4161C227.37 94.2641 228.831 96.5593 229.426 98.2556C231.242 103.434 235.494 108.068 239.015 112.233C242.82 116.731 247.473 120.495 251.444 124.863C255.769 129.62 258.731 135.087 262.577 140.165C262.577 133.863 260.425 127.446 259.545 121.212C258.771 115.724 258.527 110.22 258.038 104.709C256.926 92.1899 257.887 79.3022 259.447 66.8728C260.189 60.9698 259.768 55.2058 259.79 49.2826C259.798 47.3976 259.017 43.0528 260.012 41.38C261.916 38.1759 263.027 45.1821 263.124 46.2267C263.7 52.4493 262.667 58.6026 263.194 64.7986C263.746 71.269 264.942 77.5577 265.961 83.9532C267.064 90.878 268.86 97.6466 270.579 104.439C272.385 111.57 273.903 118.85 275.91 125.924C276.451 123.7 275.692 120.969 275.542 118.704C275.328 115.463 274.909 112.221 274.873 108.972C274.815 103.793 274.775 98.5186 275.068 93.364C275.357 88.2833 275.269 82.9594 276.828 78.0645C277.567 75.7413 278.652 73.4747 279.713 71.2862C281.022 68.5877 281.485 65.9711 282.21 63.101C282.831 60.643 283.74 58.2498 284.154 55.7426C284.411 54.1834 285.129 49.5805 286.914 53.0678C287.95 55.0919 287.502 58.0925 287.531 60.267C287.568 63.0548 287.142 65.7654 287.076 68.5414C286.949 73.988 286.858 79.4281 286.451 84.8656C286.025 90.5704 286.397 95.683 287.483 101.304C288.67 107.457 289.018 113.623 289.634 119.852C289.951 123.067 290.486 126.265 290.745 129.486C290.881 131.191 290.18 136.081 291.402 137.296C291.52 134.342 292.367 131.386 293.008 128.508C293.768 125.098 294.075 121.513 294.636 118.054C295.543 112.451 297.303 107.1 298.468 101.559C300.869 90.1375 302.863 75.4581 312.925 67.9822C314.241 67.004 315.688 66.282 317.111 65.477C317.916 65.0212 319.113 63.8422 320.035 63.6365C321.041 63.4119 321.461 63.5864 321.869 64.7537C322.438 66.3809 321.398 67.141 320.427 68.323C317.066 72.4129 315.631 77.6557 313.556 82.4522C308.804 93.4356 306.702 105.02 306.678 116.893C306.665 123.108 306.237 129.102 305.574 135.28C304.861 141.928 303.922 148.959 301.902 155.355C303.927 155.809 306.125 155.132 306.675 157.486C306.81 158.065 306.566 158.749 306.716 159.502C306.861 160.233 307.21 160.961 307.417 161.681C307.844 163.17 308.07 164.638 308.277 166.167C309.081 172.075 310.459 177.693 310.606 183.683C310.741 189.22 309.657 194.83 308.659 200.26C307.652 205.73 304.767 210.392 302.495 215.338C303.473 215.338 304.45 215.348 305.428 215.358Z" fill="black"/>
<path id="Vector_3" fill-rule="evenodd" clip-rule="evenodd" d="M176.847 202.786C175.77 203.091 170.568 203.665 170.569 205.298C170.57 206.276 175.764 206.257 176.684 206.364C176.738 205.171 176.793 203.979 176.847 202.786ZM188.329 214.049C191.326 214.619 195.395 213.817 197.311 211.175C198.207 209.94 198.631 208.062 198.923 206.588C199.201 205.184 200.06 201.68 199.476 200.363C198.758 198.747 191.871 200.436 189.865 200.622C186.366 200.945 182.748 200.983 179.247 200.755C179.247 204.37 179.062 207.893 181.188 211.005C182.722 213.25 185.603 213.78 188.329 214.049ZM187.726 218.514C184.469 217.322 181.05 218.097 178.929 214.6C178.391 213.713 177.938 212.759 177.612 211.774C177.453 211.343 177.33 210.9 177.242 210.448C177.407 209.473 177.05 209.198 176.171 209.623C174.444 209.287 172.552 210.472 170.733 210.123C166.323 209.276 167.124 202.959 170.084 200.772C170.668 200.34 171.252 200.219 171.922 200.006C173.397 199.536 174.195 200.061 175.545 199.927C176.635 199.82 176.935 198.676 178.107 198.173C178.874 197.843 179.939 197.869 180.746 197.835C184.967 197.662 189.202 197.663 193.45 197.388C195.432 197.26 197.571 197.574 199.512 197.235C200.421 197.077 200.291 196.472 201.151 197.002C202.042 197.552 201.657 199.584 201.612 200.394C201.352 205.079 201.073 210.104 198.564 214.2C196.267 217.948 191.749 218.331 187.726 218.514Z" fill="black"/>
<path id="Vector_4" fill-rule="evenodd" clip-rule="evenodd" d="M15.7249 219.805C16.7727 219.794 17.8202 219.782 18.8645 219.772C17.8153 219.783 16.7701 219.794 15.7249 219.805Z" fill="black"/>
<path id="Vector_5" fill-rule="evenodd" clip-rule="evenodd" d="M306.685 119.91C306.683 118.904 306.681 117.897 306.678 116.893C306.68 117.9 306.682 118.905 306.685 119.91Z" fill="black"/>
<path id="Vector_6" fill-rule="evenodd" clip-rule="evenodd" d="M40.1394 124.043C40.1361 125.024 40.1329 126.004 40.1296 126.983C40.1326 126.001 40.1358 125.022 40.1394 124.043Z" fill="black"/>
<path id="Vector_7" fill-rule="evenodd" clip-rule="evenodd" d="M127.239 218.693C128.072 218.695 128.906 218.696 129.736 218.698C128.901 218.697 128.07 218.695 127.239 218.693Z" fill="black"/>
<path id="Vector_8" fill-rule="evenodd" clip-rule="evenodd" d="M76.6211 218.493C77.4548 218.496 78.2881 218.499 79.1178 218.502C78.2829 218.5 77.4521 218.496 76.6211 218.493Z" fill="black"/>
<path id="Vector_9" fill-rule="evenodd" clip-rule="evenodd" d="M258.883 177.773C258.847 178.435 258.81 179.097 258.773 179.757C258.81 179.095 258.847 178.434 258.883 177.773Z" fill="black"/>
<path id="Vector_10" fill-rule="evenodd" clip-rule="evenodd" d="M305.428 215.359C304.784 215.352 304.14 215.345 303.496 215.338C304.143 215.068 304.787 215.081 305.428 215.359Z" fill="black"/>
<path id="Vector_11" fill-rule="evenodd" clip-rule="evenodd" d="M248.232 218.289C248.695 218.282 249.157 218.274 249.615 218.267C249.152 218.273 248.692 218.281 248.232 218.289Z" fill="black"/>
<path id="Vector_12" fill-rule="evenodd" clip-rule="evenodd" d="M306.434 128.077C306.445 127.576 306.457 127.076 306.468 126.578C306.457 127.079 306.445 127.578 306.434 128.077Z" fill="black"/>
<path id="Vector_13" fill-rule="evenodd" clip-rule="evenodd" d="M263.194 64.7987C263.156 64.2827 263.118 63.7671 263.08 63.2524C263.118 63.7687 263.156 64.2837 263.194 64.7987Z" fill="black"/>
<path id="Vector_14" fill-rule="evenodd" clip-rule="evenodd" d="M306.662 121.881C306.668 121.363 306.674 120.846 306.681 120.331C306.674 120.849 306.668 121.365 306.662 121.881Z" fill="black"/>
<path id="Vector_15" fill-rule="evenodd" clip-rule="evenodd" d="M161.257 217.647C161.668 217.653 162.079 217.659 162.487 217.664C162.075 217.658 161.666 217.653 161.257 217.647Z" fill="black"/>
<path id="Vector_16" fill-rule="evenodd" clip-rule="evenodd" d="M267.151 218.491C267.552 218.499 267.954 218.507 268.352 218.515C267.949 218.507 267.55 218.499 267.151 218.491Z" fill="black"/>
<path id="Vector_17" fill-rule="evenodd" clip-rule="evenodd" d="M310.56 182.127C310.531 181.673 310.502 181.219 310.474 180.767C310.503 181.22 310.531 181.674 310.56 182.127Z" fill="black"/>
<path id="Vector_18" fill-rule="evenodd" clip-rule="evenodd" d="M303.345 218.932C303.673 218.93 304 218.928 304.323 218.927C303.995 218.929 303.67 218.931 303.345 218.932Z" fill="black"/>
<path id="Vector_19" fill-rule="evenodd" clip-rule="evenodd" d="M258.776 218.511C259.1 218.503 259.424 218.495 259.744 218.488C259.419 218.496 259.097 218.504 258.776 218.511Z" fill="black"/>
<path id="Vector_20" fill-rule="evenodd" clip-rule="evenodd" d="M185.96 218.264C186.317 218.262 186.674 218.26 187.027 218.258C186.669 218.26 186.315 218.262 185.96 218.264Z" fill="black"/>
<path id="Vector_21" fill-rule="evenodd" clip-rule="evenodd" d="M103.731 218.262C104.07 218.265 104.409 218.267 104.745 218.27C104.404 218.268 104.068 218.265 103.731 218.262Z" fill="black"/>
<path id="Vector_22" fill-rule="evenodd" clip-rule="evenodd" d="M83.7275 218.317C84.0732 218.298 84.4183 218.279 84.7607 218.26C84.4141 218.279 84.071 218.298 83.7275 218.317Z" fill="black"/>
<path id="Vector_23" fill-rule="evenodd" clip-rule="evenodd" d="M179.498 86.6058C178.983 86.5615 178.469 86.5172 177.955 86.4726C178.47 86.5088 179.014 86.2041 179.498 86.6058Z" fill="black"/>
<path id="Vector_24" fill-rule="evenodd" clip-rule="evenodd" d="M310.609 215.554C310.101 215.503 309.594 215.451 309.087 215.4C309.595 215.451 310.101 215.503 310.609 215.554Z" fill="black"/>
<path id="Vector_25" fill-rule="evenodd" clip-rule="evenodd" d="M275.234 89.7285C275.2 90.1729 275.165 90.6175 275.132 91.0605C275.166 90.6156 275.2 90.1719 275.234 89.7285Z" fill="black"/>
<path id="Vector_26" fill-rule="evenodd" clip-rule="evenodd" d="M306.79 108.254C306.824 107.833 306.859 107.412 306.893 106.992C306.859 107.414 306.824 107.834 306.79 108.254Z" fill="black"/>
<path id="Vector_27" fill-rule="evenodd" clip-rule="evenodd" d="M275.032 96.6211C274.995 97.0648 274.958 97.5081 274.922 97.9502C274.959 97.5062 274.995 97.0635 275.032 96.6211Z" fill="black"/>
<path id="Vector_28" fill-rule="evenodd" clip-rule="evenodd" d="M306.575 125.259C306.571 124.83 306.568 124.402 306.565 123.974C306.842 124.402 306.831 124.829 306.575 125.259Z" fill="black"/>
<path id="Vector_29" fill-rule="evenodd" clip-rule="evenodd" d="M258.891 186.825C258.887 187.255 258.883 187.685 258.879 188.113C258.595 187.68 258.652 187.252 258.891 186.825Z" fill="black"/>
<path id="Vector_30" fill-rule="evenodd" clip-rule="evenodd" d="M291.216 137.111C291.166 136.676 291.117 136.241 291.067 135.807C291.117 136.243 291.166 136.677 291.216 137.111Z" fill="black"/>
<path id="Vector_31" fill-rule="evenodd" clip-rule="evenodd" d="M23.5514 97.1926C23.2152 97.637 22.7572 97.3326 22.3574 97.3866C22.7559 97.3219 23.1536 97.2574 23.5514 97.1926Z" fill="black"/>
<path id="Vector_32" fill-rule="evenodd" clip-rule="evenodd" d="M189.825 197.697C189.4 197.697 188.975 197.698 188.55 197.698C188.975 197.698 189.4 197.697 189.825 197.697Z" fill="black"/>
<path id="Vector_33" fill-rule="evenodd" clip-rule="evenodd" d="M257.695 99.0183C257.735 99.3796 257.774 99.741 257.814 100.101C257.774 99.739 257.735 99.3787 257.695 99.0183Z" fill="black"/>
<path id="Vector_34" fill-rule="evenodd" clip-rule="evenodd" d="M47.7512 63.1324C47.3241 63.1408 46.8971 63.1493 46.47 63.1577C46.8925 62.909 47.3183 62.8371 47.7512 63.1324Z" fill="black"/>
<path id="Vector_35" fill-rule="evenodd" clip-rule="evenodd" d="M275.021 102.871C274.994 103.25 274.966 103.629 274.939 104.006C274.966 103.627 274.994 103.249 275.021 102.871Z" fill="black"/>
<path id="Vector_36" fill-rule="evenodd" clip-rule="evenodd" d="M263.309 56.3601C263.343 56.0147 263.375 55.6694 263.408 55.3259C263.375 55.672 263.343 56.016 263.309 56.3601Z" fill="black"/>
<path id="Vector_37" fill-rule="evenodd" clip-rule="evenodd" d="M259.953 55.2783C259.92 55.653 259.886 56.028 259.853 56.4014C259.887 56.026 259.92 55.652 259.953 55.2783Z" fill="black"/>
<path id="Vector_38" fill-rule="evenodd" clip-rule="evenodd" d="M74.4411 30.2483C74.0065 30.301 73.5719 30.3538 73.1377 30.4062C73.5723 30.3534 74.0065 30.301 74.4411 30.2483Z" fill="black"/>
<path id="Vector_39" fill-rule="evenodd" clip-rule="evenodd" d="M43.0531 63.4307C42.6072 63.4762 42.1612 63.5218 41.7156 63.5674C42.1615 63.5218 42.6075 63.4762 43.0531 63.4307Z" fill="black"/>
<path id="Vector_40" fill-rule="evenodd" clip-rule="evenodd" d="M287.432 64.5291C287.46 64.1805 287.487 63.8315 287.514 63.4849C287.487 63.8338 287.459 64.1815 287.432 64.5291Z" fill="black"/>
<path id="Vector_41" fill-rule="evenodd" clip-rule="evenodd" d="M28.4158 122.067C28.6726 122.071 28.9291 122.074 29.182 122.078C28.9242 122.074 28.67 122.071 28.4158 122.067Z" fill="black"/>
<path id="Vector_42" fill-rule="evenodd" clip-rule="evenodd" d="M259.966 165.096C259.941 165.482 259.915 165.868 259.889 166.253C259.915 165.867 259.941 165.481 259.966 165.096Z" fill="black"/>
<path id="Vector_43" fill-rule="evenodd" clip-rule="evenodd" d="M286.166 89.9653C286.156 89.5932 286.146 89.2214 286.135 88.8503C286.146 89.2227 286.156 89.5938 286.166 89.9653Z" fill="black"/>
<path id="Vector_44" fill-rule="evenodd" clip-rule="evenodd" d="M85.3807 29.368C84.9845 29.368 84.5884 29.3683 84.1929 29.3683C84.589 29.0962 84.9849 29.103 85.3807 29.368Z" fill="black"/>
<path id="Vector_45" fill-rule="evenodd" clip-rule="evenodd" d="M191.146 116.941C190.712 116.952 190.278 116.963 189.845 116.974C190.271 116.673 190.705 116.665 191.146 116.941Z" fill="black"/>
<path id="Vector_46" fill-rule="evenodd" clip-rule="evenodd" d="M229.066 217.632C229.323 217.638 229.58 217.643 229.834 217.649C229.576 217.644 229.321 217.638 229.066 217.632Z" fill="black"/>
<path id="Vector_47" fill-rule="evenodd" clip-rule="evenodd" d="M238.752 218.084C239.009 218.075 239.266 218.066 239.519 218.057C239.261 218.066 239.007 218.075 238.752 218.084Z" fill="black"/>
<path id="Vector_48" fill-rule="evenodd" clip-rule="evenodd" d="M87.1587 218.263C87.4266 218.27 87.6945 218.277 87.9588 218.283C87.6899 218.276 87.4243 218.27 87.1587 218.263Z" fill="black"/>
<path id="Vector_49" fill-rule="evenodd" clip-rule="evenodd" d="M310.338 177.822C310.299 177.454 310.261 177.086 310.223 176.72C310.261 177.088 310.299 177.455 310.338 177.822Z" fill="black"/>
<path id="Vector_50" fill-rule="evenodd" clip-rule="evenodd" d="M275.349 115.811C275.38 116.161 275.41 116.512 275.44 116.86C275.41 116.509 275.38 116.16 275.349 115.811Z" fill="black"/>
<path id="Vector_51" fill-rule="evenodd" clip-rule="evenodd" d="M288.814 109.792C288.772 109.42 288.731 109.048 288.689 108.678C288.731 109.05 288.772 109.421 288.814 109.792Z" fill="black"/>
<path id="Vector_52" fill-rule="evenodd" clip-rule="evenodd" d="M89.332 218.485C89.6022 218.48 89.8727 218.476 90.14 218.473C89.8685 218.477 89.6003 218.481 89.332 218.485Z" fill="black"/>
<path id="Vector_53" fill-rule="evenodd" clip-rule="evenodd" d="M187.726 218.514C187.989 218.502 188.251 218.49 188.511 218.479C188.248 218.491 187.987 218.502 187.726 218.514Z" fill="black"/>
<path id="Vector_54" fill-rule="evenodd" clip-rule="evenodd" d="M286.617 82.6468C286.604 82.2702 286.593 81.8936 286.581 81.5176C286.593 81.8945 286.605 82.2705 286.617 82.6468Z" fill="black"/>
<path id="Vector_55" fill-rule="evenodd" clip-rule="evenodd" d="M63.7124 218.731C63.9761 218.729 64.2394 218.726 64.4995 218.725C64.2345 218.727 63.9738 218.729 63.7124 218.731Z" fill="black"/>
<path id="Vector_56" fill-rule="evenodd" clip-rule="evenodd" d="M286.506 218.727C286.777 218.73 287.048 218.733 287.316 218.736C287.043 218.733 286.775 218.73 286.506 218.727Z" fill="black"/>
<path id="Vector_57" fill-rule="evenodd" clip-rule="evenodd" d="M292.357 218.695C292.619 218.713 292.881 218.732 293.139 218.75C292.876 218.732 292.617 218.713 292.357 218.695Z" fill="black"/>
<path id="Vector_58" fill-rule="evenodd" clip-rule="evenodd" d="M294.721 218.69C294.987 218.698 295.254 218.706 295.517 218.712C295.249 218.704 294.985 218.697 294.721 218.69Z" fill="black"/>
<path id="Vector_59" fill-rule="evenodd" clip-rule="evenodd" d="M306.855 111.285C306.837 110.914 306.82 110.544 306.803 110.174C306.82 110.545 306.837 110.915 306.855 111.285Z" fill="black"/>
<path id="Vector_60" fill-rule="evenodd" clip-rule="evenodd" d="M128.035 213.834C128.846 213.792 129.656 213.75 130.467 213.708C129.656 213.75 128.846 213.792 128.035 213.834Z" fill="black"/>
<path id="Vector_61" fill-rule="evenodd" clip-rule="evenodd" d="M79.1455 79.1348C79.849 79.196 80.5524 79.2572 81.2552 79.3177C80.5518 79.2568 79.8486 79.1956 79.1455 79.1348Z" fill="black"/>
<path id="Vector_62" fill-rule="evenodd" clip-rule="evenodd" d="M277.761 109.718C277.783 110.389 277.806 111.06 277.827 111.73C277.805 111.058 277.783 110.388 277.761 109.718Z" fill="black"/>
<path id="Vector_63" fill-rule="evenodd" clip-rule="evenodd" d="M292.279 214.982C293.013 215.027 293.747 215.071 294.482 215.116C293.743 215.149 292.993 215.36 292.279 214.982Z" fill="black"/>
<path id="Vector_64" fill-rule="evenodd" clip-rule="evenodd" d="M287.933 135.586C287.939 134.945 287.944 134.305 287.949 133.666C287.944 134.307 287.939 134.946 287.933 135.586Z" fill="black"/>
<path id="Vector_65" fill-rule="evenodd" clip-rule="evenodd" d="M286.053 155.703C286.698 155.711 287.343 155.72 287.986 155.729C287.342 155.72 286.698 155.711 286.053 155.703Z" fill="black"/>
<path id="Vector_66" fill-rule="evenodd" clip-rule="evenodd" d="M123.851 144.446C123.835 144.934 123.819 145.422 123.804 145.908C123.82 145.419 123.836 144.933 123.851 144.446Z" fill="black"/>
<path id="Vector_67" fill-rule="evenodd" clip-rule="evenodd" d="M296.777 123.784C296.751 124.27 296.724 124.755 296.699 125.238C296.725 124.752 296.751 124.268 296.777 123.784Z" fill="black"/>
<path id="Vector_68" fill-rule="evenodd" clip-rule="evenodd" d="M283.031 212.821C283.5 212.789 283.968 212.758 284.436 212.728C284.084 213.01 283.729 213.033 283.031 212.821Z" fill="black"/>
<path id="Vector_69" fill-rule="evenodd" clip-rule="evenodd" d="M279.894 149.345C279.926 149.869 279.958 150.392 279.99 150.914C279.958 150.39 279.926 149.868 279.894 149.345Z" fill="black"/>
<path id="Vector_70" fill-rule="evenodd" clip-rule="evenodd" d="M104.628 66.7268C104.633 66.2213 104.638 65.7157 104.643 65.2122C104.639 65.7183 104.634 66.2226 104.628 66.7268Z" fill="black"/>
<path id="Vector_71" fill-rule="evenodd" clip-rule="evenodd" d="M280.461 155.809L282.208 155.771C281.632 156.049 281.049 156.059 280.461 155.809Z" fill="black"/>
<path id="Vector_72" fill-rule="evenodd" clip-rule="evenodd" d="M296.579 159.539C296.167 159.543 295.755 159.546 295.346 159.55C295.759 159.547 296.169 159.543 296.579 159.539Z" fill="black"/>
<path id="Vector_73" fill-rule="evenodd" clip-rule="evenodd" d="M145.709 213.023C146.28 213.03 146.85 213.038 147.42 213.045C146.846 213.333 146.275 213.374 145.709 213.023Z" fill="black"/>
<path id="Vector_74" fill-rule="evenodd" clip-rule="evenodd" d="M277.962 114.029C277.99 114.554 278.019 115.08 278.047 115.604C278.019 115.078 277.99 114.553 277.962 114.029Z" fill="black"/>
<path id="Vector_75" fill-rule="evenodd" clip-rule="evenodd" d="M93.2153 80.3681C93.7033 80.1275 94.1951 80.0872 94.6919 80.3421C94.1994 80.3508 93.7075 80.3596 93.2153 80.3681Z" fill="black"/>
<path id="Vector_76" fill-rule="evenodd" clip-rule="evenodd" d="M262.001 120.096C262.041 120.539 262.081 120.982 262.122 121.424C262.081 120.98 262.041 120.538 262.001 120.096Z" fill="black"/>
<path id="Vector_77" fill-rule="evenodd" clip-rule="evenodd" d="M303.221 109.755C302.97 109.321 302.979 108.89 303.233 108.462C303.229 108.894 303.225 109.324 303.221 109.755Z" fill="black"/>
<path id="Vector_78" fill-rule="evenodd" clip-rule="evenodd" d="M278.042 94.7026C278.042 95.1411 278.042 95.5799 278.042 96.0171C278.042 95.5776 278.042 95.1401 278.042 94.7026Z" fill="black"/>
<path id="Vector_79" fill-rule="evenodd" clip-rule="evenodd" d="M295.534 155.493C296.036 155.339 296.538 155.122 297.038 155.499C296.537 155.497 296.035 155.495 295.534 155.493Z" fill="black"/>
<path id="Vector_80" fill-rule="evenodd" clip-rule="evenodd" d="M63.9417 213.637C64.4045 213.433 64.8665 213.327 65.3225 213.653C64.8619 213.647 64.4019 213.642 63.9417 213.637Z" fill="black"/>
<path id="Vector_81" fill-rule="evenodd" clip-rule="evenodd" d="M158.624 212.984C159.119 212.768 159.613 212.649 160.101 212.999C159.608 212.994 159.116 212.989 158.624 212.984Z" fill="black"/>
<path id="Vector_82" fill-rule="evenodd" clip-rule="evenodd" d="M48.4387 148.946C48.4758 149.393 48.5133 149.84 48.55 150.285C48.5126 149.838 48.4755 149.392 48.4387 148.946Z" fill="black"/>
<path id="Vector_83" fill-rule="evenodd" clip-rule="evenodd" d="M163.356 123.203C163.843 123.026 164.328 122.933 164.806 123.229C164.323 123.22 163.839 123.211 163.356 123.203Z" fill="black"/>
<path id="Vector_84" fill-rule="evenodd" clip-rule="evenodd" d="M277.955 136.506C277.982 136.943 278.009 137.38 278.035 137.816C278.008 137.379 277.981 136.943 277.955 136.506Z" fill="black"/>
<path id="Vector_85" fill-rule="evenodd" clip-rule="evenodd" d="M48.1242 97.0886C48.0838 97.4405 48.0435 97.7927 48.0034 98.1427C48.0438 97.7901 48.0838 97.4395 48.1242 97.0886Z" fill="black"/>
<path id="Vector_86" fill-rule="evenodd" clip-rule="evenodd" d="M19.8975 199.136C19.8725 199.479 19.8477 199.822 19.823 200.162C19.8487 199.819 19.8731 199.478 19.8975 199.136Z" fill="black"/>
<path id="Vector_87" fill-rule="evenodd" clip-rule="evenodd" d="M288.149 138.818C288.122 138.464 288.094 138.11 288.067 137.758C288.094 138.112 288.122 138.466 288.149 138.818Z" fill="black"/>
<path id="Vector_88" fill-rule="evenodd" clip-rule="evenodd" d="M123.687 147.46C123.768 147.718 123.849 147.976 123.93 148.234C123.389 148.365 123.308 148.107 123.687 147.46Z" fill="black"/>
<path id="Vector_89" fill-rule="evenodd" clip-rule="evenodd" d="M156.224 122.62C156.664 122.618 157.105 122.616 157.546 122.614C157.106 122.823 156.665 122.967 156.224 122.62Z" fill="black"/>
<path id="Vector_90" fill-rule="evenodd" clip-rule="evenodd" d="M48.6858 151.062C48.7008 151.453 48.7157 151.844 48.7301 152.233C48.7148 151.842 48.7001 151.452 48.6858 151.062Z" fill="black"/>
<path id="Vector_91" fill-rule="evenodd" clip-rule="evenodd" d="M263.071 155.181C263.086 155.54 263.102 155.9 263.118 156.258C263.103 155.897 263.087 155.539 263.071 155.181Z" fill="black"/>
<path id="Vector_92" fill-rule="evenodd" clip-rule="evenodd" d="M44.3167 214.503C44.7349 214.225 45.1542 214.249 45.5741 214.498C45.1549 214.5 44.7356 214.501 44.3167 214.503Z" fill="black"/>
<path id="Vector_93" fill-rule="evenodd" clip-rule="evenodd" d="M55.3315 92.0635C55.354 92.4307 55.3768 92.7982 55.4002 93.1631C55.3778 92.7952 55.3547 92.4294 55.3315 92.0635Z" fill="black"/>
<path id="Vector_94" fill-rule="evenodd" clip-rule="evenodd" d="M42.1404 214.541C42.5753 214.542 43.0102 214.544 43.4447 214.546C43.0085 214.843 42.574 214.857 42.1404 214.541Z" fill="black"/>
<path id="Vector_95" fill-rule="evenodd" clip-rule="evenodd" d="M282.957 86.2995C282.96 85.9264 282.964 85.5537 282.967 85.1816C282.963 85.555 282.96 85.9271 282.957 86.2995Z" fill="black"/>
<path id="Vector_96" fill-rule="evenodd" clip-rule="evenodd" d="M83.2988 79.7759C83.7148 79.8302 84.1309 79.8846 84.5466 79.9386C84.1305 79.8843 83.7145 79.8302 83.2988 79.7759Z" fill="black"/>
<path id="Vector_97" fill-rule="evenodd" clip-rule="evenodd" d="M46.5881 111.969C46.5937 112.318 46.5992 112.666 46.6057 113.013C46.6002 112.664 46.5943 112.317 46.5881 111.969Z" fill="black"/>
<path id="Vector_98" fill-rule="evenodd" clip-rule="evenodd" d="M285.758 111.92C285.735 111.565 285.712 111.21 285.689 110.857C285.712 111.212 285.735 111.566 285.758 111.92Z" fill="black"/>
<path id="Vector_99" fill-rule="evenodd" clip-rule="evenodd" d="M188.729 214.125C189.242 214.171 189.755 214.218 190.268 214.264C189.755 214.218 189.242 214.171 188.729 214.125Z" fill="black"/>
<path id="Vector_100" fill-rule="evenodd" clip-rule="evenodd" d="M187.014 200.836C186.736 200.84 186.459 200.845 186.184 200.851C186.462 200.847 186.738 200.841 187.014 200.836Z" fill="black"/>
<path id="Vector_101" fill-rule="evenodd" clip-rule="evenodd" d="M187.037 213.921C187.468 213.964 187.899 214.006 188.329 214.049C187.898 214.006 187.468 213.964 187.037 213.921Z" fill="black"/>
<path id="Vector_102" fill-rule="evenodd" clip-rule="evenodd" d="M109.556 184.928C110.116 188.093 105.197 191.189 104.807 186.689C104.665 185.044 105.765 183.887 106.997 182.881C108.746 181.454 109.723 182.82 109.556 184.928Z" fill="black"/>
<path id="Vector_103" fill-rule="evenodd" clip-rule="evenodd" d="M55.3336 146.309C56.4925 146.783 65.3463 149.668 60.7473 151.119C59.5299 151.503 57.6897 151.561 56.6344 150.884C55.3649 150.07 54.0843 147.666 55.3336 146.309Z" fill="black"/>
<path id="Vector_104" fill-rule="evenodd" clip-rule="evenodd" d="M57.5124 103.443C60.5176 103.094 63.2865 108.03 59.5814 107.87C56.8845 107.753 53.2575 103.443 57.5124 103.443Z" fill="black"/>
<path id="Vector_105" fill-rule="evenodd" clip-rule="evenodd" d="M68.2628 115.545C70.7722 117.735 66.1208 122.635 64.2742 120.738C63.3311 119.77 64.2009 117.683 64.9792 116.872C65.7781 116.041 67.1993 115.884 68.2628 115.545Z" fill="black"/>
<path id="Vector_106" fill-rule="evenodd" clip-rule="evenodd" d="M75.7335 172.306C74.2521 172.541 67.7371 174.67 69.0958 170.803C69.614 169.329 71.0594 169.766 72.3806 169.834C74.5102 169.943 75.7335 169.841 75.7335 172.306Z" fill="black"/>
<path id="Vector_107" fill-rule="evenodd" clip-rule="evenodd" d="M71.4421 182.266C73.6599 183.453 70.418 190.093 68.5798 188.68C66.0293 186.72 69.5176 182.862 71.4421 182.266Z" fill="black"/>
<path id="Vector_108" fill-rule="evenodd" clip-rule="evenodd" d="M81.1144 176.928C82.1929 176.488 87.2765 181.378 85.3413 182.738C84.3495 183.436 82.4702 182.24 81.8722 181.519C80.7512 180.168 80.6496 178.501 81.1144 176.928Z" fill="black"/>
<path id="Vector_109" fill-rule="evenodd" clip-rule="evenodd" d="M51.7843 136.959C52.8865 137.14 54.7895 137.198 54.8608 138.746C54.9233 140.108 53.2166 140.549 52.0151 140.656C50.7683 140.766 49.1179 140.414 49.0942 138.847C49.0691 137.156 51.7452 137.258 51.7843 136.959Z" fill="black"/>
<path id="Vector_110" fill-rule="evenodd" clip-rule="evenodd" d="M78.9647 204.359C80.1385 205.071 85.6137 207.637 83.2667 209.491C82.3885 210.184 79.726 208.752 79.1268 208.024C78.4116 207.154 77.7127 205.118 78.9647 204.359Z" fill="black"/>
<path id="Vector_111" fill-rule="evenodd" clip-rule="evenodd" d="M94.1852 185.741C94.0156 182.909 98.7936 181.782 97.8031 185.802C97.5238 186.935 97.2536 188.655 95.8522 188.721C94.196 188.799 94.1361 186.839 94.1852 185.741Z" fill="black"/>
<path id="Vector_112" fill-rule="evenodd" clip-rule="evenodd" d="M79.4257 136.493C79.4589 138.641 75.3423 140.536 75.3104 137.131C75.2821 134.088 79.5793 133.197 79.4257 136.493Z" fill="black"/>
<path id="Vector_113" fill-rule="evenodd" clip-rule="evenodd" d="M76.7072 125.304C77.7215 125.631 79.0695 125.799 79.1587 127.088C79.2534 128.451 77.9865 129.059 76.8465 128.982C75.9116 128.919 74.5282 128.227 74.3582 127.213C74.1092 125.724 75.5623 125.627 76.7072 125.304Z" fill="black"/>
<path id="Vector_114" fill-rule="evenodd" clip-rule="evenodd" d="M57.8458 164.637C57.8285 162.865 61.3812 160.734 62.0355 162.791C62.2449 163.449 60.5704 166.401 60.0134 166.622C58.5398 167.207 58.334 165.843 57.8458 164.637Z" fill="black"/>
<path id="Vector_115" fill-rule="evenodd" clip-rule="evenodd" d="M86.9587 194.143C85.7582 195.218 82.157 198.236 82.4262 194.184C82.5981 191.596 87.2755 191.731 86.9587 194.143Z" fill="black"/>
<path id="Vector_116" fill-rule="evenodd" clip-rule="evenodd" d="M145.632 205.725C146.025 204.021 151.659 206.977 149.779 209.129C149.148 209.851 147.498 209.197 146.864 208.769C145.608 207.922 145.581 207.14 145.632 205.725Z" fill="black"/>
<path id="Vector_117" fill-rule="evenodd" clip-rule="evenodd" d="M114.24 169.254C114.46 168.495 114.704 167.152 115.428 166.667C116.74 165.79 117.881 167.113 117.882 168.507C117.882 171.108 114.921 171.928 114.24 169.254Z" fill="black"/>
<path id="Vector_118" fill-rule="evenodd" clip-rule="evenodd" d="M100.276 199.664C101.739 199.999 104.996 203.555 103.107 205.005C101.289 206.402 98.8711 200.726 100.276 199.664Z" fill="black"/>
<path id="Vector_119" fill-rule="evenodd" clip-rule="evenodd" d="M101.669 172.747C103.55 172.897 106.135 175.943 103.211 176.427C100.925 176.806 98.2651 173.493 101.669 172.747Z" fill="black"/>
<path id="Vector_120" fill-rule="evenodd" clip-rule="evenodd" d="M118.697 186.763C119.168 185.174 123.833 186.877 123.571 188.626C123.432 189.556 121.524 189.774 120.522 189.529C119.046 189.166 118.663 188.198 118.697 186.763Z" fill="black"/>
<path id="Vector_121" fill-rule="evenodd" clip-rule="evenodd" d="M63.7106 98.0242C63.7445 95.9701 67.6914 95.1329 67.9805 97.2029C68.2419 99.073 63.6611 101.063 63.7106 98.0242Z" fill="black"/>
<path id="Vector_122" fill-rule="evenodd" clip-rule="evenodd" d="M117.393 207.928C117.677 206.895 117.8 205.652 119.09 205.516C120.567 205.36 120.523 206.493 120.35 207.667C119.877 210.86 118.073 211.02 117.393 207.928Z" fill="black"/>
<path id="Vector_123" fill-rule="evenodd" clip-rule="evenodd" d="M55.0634 122.463C53.0057 122.927 49.2372 118.964 51.5406 118.114C53.1636 117.514 55.0634 121.267 55.0634 122.463Z" fill="black"/>
<path id="Vector_124" fill-rule="evenodd" clip-rule="evenodd" d="M81.3076 153.245C80.2604 153.738 80.0192 154.037 79.2148 153.228C78.5143 152.523 78.5452 150.56 79.1465 149.827C81.4492 147.019 81.3952 152.109 81.3076 153.245Z" fill="black"/>
<path id="Vector_125" fill-rule="evenodd" clip-rule="evenodd" d="M89.8511 147.551C90.9433 147.69 94.1884 150.768 92.4986 151.992C90.428 153.49 89.2564 148.795 89.8511 147.551Z" fill="black"/>
<path id="Vector_126" fill-rule="evenodd" clip-rule="evenodd" d="M113.48 148.362C112.686 151.419 110.705 149.362 110.817 147.049C110.997 143.344 113.051 146.571 113.48 148.362Z" fill="black"/>
<path id="Vector_127" fill-rule="evenodd" clip-rule="evenodd" d="M125.528 197.459C126.871 198.015 128.694 203.149 126.776 203.424C124.621 203.733 125.339 198.528 125.528 197.459Z" fill="black"/>
<path id="Vector_128" fill-rule="evenodd" clip-rule="evenodd" d="M108.755 194.574C110.292 194.056 110.855 197.298 109.962 197.9C107.997 199.225 108.411 195.339 108.755 194.574Z" fill="black"/>
<path id="Vector_129" fill-rule="evenodd" clip-rule="evenodd" d="M94.1854 185.741C94.1659 186.172 94.1466 186.602 94.1265 187.03C94.1457 186.599 94.1652 186.17 94.1854 185.741Z" fill="black"/>
<path id="Vector_130" fill-rule="evenodd" clip-rule="evenodd" d="M145.632 205.725C145.616 206.166 145.6 206.607 145.583 207.046C145.598 206.604 145.615 206.164 145.632 205.725Z" fill="black"/>
<path id="Vector_131" fill-rule="evenodd" clip-rule="evenodd" d="M118.697 186.763C118.688 187.137 118.679 187.512 118.669 187.884C118.678 187.508 118.687 187.136 118.697 186.763Z" fill="black"/>
<path id="Vector_132" fill-rule="evenodd" clip-rule="evenodd" d="M288.683 180.321C291.869 180.218 295.423 179.019 298.554 179.401C299.416 179.506 301.4 179.723 300.019 181.001C299.359 181.613 296.197 181.296 295.24 181.499C289.39 182.738 282.749 183.537 276.751 183.433C273.943 183.385 271.114 183.16 268.308 183.012C265.503 182.863 265.227 181.724 268.383 181.361C271.661 180.985 275.024 181.125 278.318 181.121C281.781 181.116 285.227 180.552 288.683 180.321Z" fill="black"/>
<path id="Vector_133" fill-rule="evenodd" clip-rule="evenodd" d="M295.678 172.644C295.371 173.517 295.102 175.521 293.927 175.653C292.281 175.837 292.008 173.011 292.069 171.977C292.142 170.73 292.591 168.658 294.142 169.09C295.451 169.454 295.583 171.646 295.678 172.644Z" fill="black"/>
<path id="Vector_134" fill-rule="evenodd" clip-rule="evenodd" d="M285.714 172.005C285.954 171.07 286.072 168.962 287.395 168.89C288.872 168.811 289.295 171.007 289.285 172.059C289.275 173.058 288.906 174.945 287.729 175.176C286.134 175.489 285.991 173.073 285.714 172.005Z" fill="black"/>
<path id="Vector_135" fill-rule="evenodd" clip-rule="evenodd" d="M269.12 173.682C268.641 174.806 268.324 176.353 266.843 175.587C265.697 174.995 265.537 172.605 265.753 171.511C265.977 170.377 266.451 169.077 267.754 169.587C269.256 170.175 269.104 172.445 269.12 173.682Z" fill="black"/>
<path id="Vector_136" fill-rule="evenodd" clip-rule="evenodd" d="M281.686 172.644C280.273 176.926 277.697 174.029 278.676 170.832C279.698 167.491 281.556 170.736 281.686 172.644Z" fill="black"/>
<path id="Vector_137" fill-rule="evenodd" clip-rule="evenodd" d="M274.804 172.856C274.412 173.61 273.995 175.236 272.937 175.065C271.641 174.855 271.599 172.36 271.742 171.431C271.866 170.618 272.231 169.263 273.316 169.28C274.884 169.306 274.779 171.88 274.804 172.856Z" fill="black"/>
<path id="Vector_138" fill-rule="evenodd" clip-rule="evenodd" d="M302.979 173.678C301.927 176.037 300.481 174.005 300.944 172.329C301.63 169.845 302.919 172.046 302.979 173.678Z" fill="black"/>
<path id="Vector_139" fill-rule="evenodd" clip-rule="evenodd" d="M277.228 181.124C276.08 181.119 274.932 181.115 273.783 181.111C274.933 180.894 276.082 180.81 277.228 181.124Z" fill="black"/>
<path id="Vector_140" fill-rule="evenodd" clip-rule="evenodd" d="M300.048 179.391C299.052 179.398 298.056 179.404 297.061 179.41C298.055 179.112 299.05 179.106 300.048 179.391Z" fill="black"/>
<path id="Vector_141" fill-rule="evenodd" clip-rule="evenodd" d="M269.12 173.682C269.113 173.11 269.105 172.538 269.098 171.967C269.393 172.536 269.372 173.107 269.12 173.682Z" fill="black"/>
<path id="Vector_142" fill-rule="evenodd" clip-rule="evenodd" d="M275.368 183.421C275.83 183.426 276.293 183.43 276.751 183.434C276.287 183.43 275.828 183.426 275.368 183.421Z" fill="black"/>
<path id="Vector_143" fill-rule="evenodd" clip-rule="evenodd" d="M267.606 183.012C268.074 183.012 268.542 183.012 269.007 183.012C268.537 183.012 268.072 183.012 267.606 183.012Z" fill="black"/>
<path id="Vector_144" fill-rule="evenodd" clip-rule="evenodd" d="M271.445 181.173C270.793 181.226 270.142 181.28 269.492 181.333C270.143 181.28 270.793 181.226 271.445 181.173Z" fill="black"/>
<path id="Vector_145" fill-rule="evenodd" clip-rule="evenodd" d="M280.247 181.116C279.604 181.118 278.961 181.119 278.318 181.12C278.961 180.85 279.603 180.842 280.247 181.116Z" fill="black"/>
<path id="Vector_146" fill-rule="evenodd" clip-rule="evenodd" d="M274.804 172.856C274.788 172.26 274.773 171.663 274.758 171.068C274.774 171.664 274.789 172.26 274.804 172.856Z" fill="black"/>
<path id="Vector_147" fill-rule="evenodd" clip-rule="evenodd" d="M265.753 171.511C265.75 172.093 265.746 172.674 265.741 173.254C265.745 172.671 265.749 172.091 265.753 171.511Z" fill="black"/>
<path id="Vector_148" fill-rule="evenodd" clip-rule="evenodd" d="M292.335 180.104C291.767 180.155 291.199 180.207 290.631 180.258C291.199 180.207 291.768 180.155 292.335 180.104Z" fill="black"/>
<path id="Vector_149" fill-rule="evenodd" clip-rule="evenodd" d="M302.979 173.678C302.96 173.17 302.942 172.662 302.924 172.154C302.942 172.663 302.96 173.17 302.979 173.678Z" fill="black"/>
<path id="Vector_150" fill-rule="evenodd" clip-rule="evenodd" d="M278.802 183.438C279.198 183.431 279.593 183.423 279.985 183.417C279.588 183.424 279.195 183.431 278.802 183.438Z" fill="black"/>
<path id="Vector_151" fill-rule="evenodd" clip-rule="evenodd" d="M295.678 172.644C295.643 172.279 295.608 171.913 295.573 171.55C295.608 171.915 295.643 172.28 295.678 172.644Z" fill="black"/>
<path id="Vector_152" fill-rule="evenodd" clip-rule="evenodd" d="M281.686 172.644C281.66 172.269 281.635 171.894 281.609 171.52C281.635 171.895 281.66 172.27 281.686 172.644Z" fill="black"/>
<path id="Vector_153" fill-rule="evenodd" clip-rule="evenodd" d="M77.7029 62.4457C76.1473 62.0375 75.8556 59.8513 76.1056 58.5085C76.3891 57.8614 76.6727 57.2146 76.9562 56.5674C76.8452 56.3282 76.7345 56.0889 76.6238 55.8496C76.7661 54.517 76.4025 53.9379 77.9341 54.4776C80.7791 55.4808 81.2339 62.3428 77.7029 62.4457Z" fill="black"/>
<path id="Vector_154" fill-rule="evenodd" clip-rule="evenodd" d="M100.731 58.2187C102.012 58.1178 104.34 59.6103 103.064 61.0543C102.274 61.9489 99.6696 61.5257 98.6071 61.7125C97.1979 61.9603 95.7282 62.2991 96.4905 60.1884C97.0892 58.5309 99.2272 58.1754 100.731 58.2187Z" fill="black"/>
<path id="Vector_155" fill-rule="evenodd" clip-rule="evenodd" d="M99.3822 68.1466C98.0804 67.1027 98.6615 62.3478 100.643 63.2032C102.681 64.0838 100.468 67.4604 99.3822 68.1466Z" fill="black"/>
<path id="Vector_156" fill-rule="evenodd" clip-rule="evenodd" d="M76.1054 58.5085C76.1054 59.0089 76.1051 59.5095 76.1041 60.0076C75.8326 59.5063 75.8411 59.0072 76.1054 58.5085Z" fill="black"/>
<path id="Vector_157" fill-rule="evenodd" clip-rule="evenodd" d="M77.7029 62.4457C77.9682 62.4382 78.2338 62.4304 78.4959 62.4236C78.2292 62.432 77.9662 62.4389 77.7029 62.4457Z" fill="black"/>
<path id="Vector_158" fill-rule="evenodd" clip-rule="evenodd" d="M238.439 199.381C238.318 201.544 235.995 199.945 236.16 198.498C236.459 195.873 237.944 198.467 238.439 199.381Z" fill="black"/>
</g>
</g>
</g>
</g>
</svg>
