<svg width="335" height="251" viewBox="0 0 335 251" fill="none" xmlns="http://www.w3.org/2000/svg">
<path fill-rule="evenodd" clip-rule="evenodd" d="M216.694 95.5004C214.208 100.36 211.583 105.09 208.931 109.861C207.528 112.387 203.001 122.833 201.832 123.232C200.573 123.662 192.861 119.127 190.647 118.238C186.714 116.659 182.977 115.165 178.868 114.191C174.268 113.101 169.631 112.297 164.859 112.702C162.769 112.88 159.31 113.386 161.387 110.449C162.901 108.308 164.368 106.337 166.424 104.79C167.921 103.664 170.115 101.599 171.868 100.847C173.707 100.057 176.419 100.232 178.395 100.279C180.531 100.329 190.714 103.507 191.274 100.195C192.313 101.14 192.918 100.775 194.108 101.236C195.449 101.756 196.286 102.766 197.618 103.376C198.482 103.772 200.075 105.336 201.035 105.346C202.312 105.358 202.656 104.301 203.573 103.52C205.628 101.771 208.364 100.62 210.593 99.0998C212.556 97.761 214.426 96.3655 216.694 95.5004ZM194.323 57.0889C194.148 59.3073 194.747 61.3686 194.733 63.6513C194.726 64.6473 194.681 65.643 194.984 66.6027C195.255 67.463 195.065 69.0085 195.21 69.9092C192.669 69.1357 187.948 67.9884 185.353 69.0316C182.873 70.0289 182.561 74.6405 182.473 76.8835C182.414 78.4122 183.093 80.7672 182.578 82.2308C182.338 82.9135 182.336 83.1338 182.351 83.1953L182.353 83.2019C182.304 83.1767 182.105 83.1771 181.403 83.6839C180.706 84.1858 179.875 84.4627 179.187 85.017C177.936 86.0266 177.721 87.1707 177.104 88.6339C176.504 90.055 174.906 91.3181 173.122 91.2666C174.556 88.6678 176.547 86.2406 175.404 83.1881C174.542 80.8842 176.053 78.1805 177.242 75.992C177.635 75.2671 181.998 69.714 180.065 69.3225C178.81 69.0681 175.928 74.9628 175.377 75.992C173.84 74.9525 173.149 73.6714 174.333 72.1059C175.241 70.9037 176.357 69.8757 177.242 68.6309C178.678 66.6105 180.078 64.199 181.784 62.4044C184.779 59.2533 190.009 57.1082 194.323 57.0889ZM182.353 83.2019C182.37 83.2134 182.363 83.2245 182.355 83.2075L182.353 83.2019ZM234.585 53.646C236.499 55.48 238.921 57.0012 240.77 58.9259C242.39 60.6108 244.571 63.445 245.34 65.6959C241.392 66.4567 234.834 68.787 233.262 72.9296C227.123 67.294 224.748 77.597 223.53 81.9053C219.937 80.3506 220.653 75.1747 220.701 72.1527C220.738 69.7556 222.198 66.9182 218.717 66.7218C216.116 66.5756 213.59 67.6349 211.244 68.6268C208.317 69.8646 205.246 71.7163 202.881 73.8431L200.418 71.9253C204.459 69.6564 206.566 65.3182 208.931 61.346C209.686 60.0796 210.694 58.6714 211.244 57.3025C211.625 56.3559 211.893 54.4452 212.31 53.6035C212.966 52.2804 219.378 51.9161 221.077 51.5751C225.561 50.6751 230.92 50.1356 234.585 53.646Z" fill="#44CBB1"/>
<path fill-rule="evenodd" clip-rule="evenodd" d="M233.563 83.0507C235.219 82.966 236.868 83.3359 238.524 83.1747C237.086 81.922 235.649 80.6698 234.21 79.4176C233.575 80.5331 233.529 81.8021 233.563 83.0507ZM194.267 57.3026C189.98 57.3214 184.75 59.4747 181.772 62.6196C180.194 64.2864 178.89 66.5245 177.556 68.3971C176.661 69.6534 175.787 70.866 174.7 71.9701C173.116 73.5791 173.57 73.947 175.355 75.1587C175.919 74.1001 178.915 68.4401 180.171 68.6946C182.078 69.0817 178.394 75.0605 177.991 75.8053C176.8 78.009 174.875 81.0872 175.74 83.4112C176.881 86.4792 175.226 88.2278 173.79 90.8419C175.298 90.8857 175.447 90.2972 175.967 89.0106C176.635 87.357 177.363 85.9754 178.775 84.832C179.869 83.9469 181.657 83.5741 182.171 82.5052C182.807 81.1838 182.408 78.5746 182.459 77.1046C182.538 74.8711 182.543 69.5908 185.005 68.5984C187.583 67.5586 192.22 68.5387 194.741 69.3088C194.426 67.3405 193.433 66.0547 193.447 63.8674C193.462 61.5778 194.092 59.5349 194.267 57.3026ZM161.332 93.8313C163.574 93.1213 165.7 92.3733 168.008 91.8895C170.422 91.3829 170.584 90.8035 171.945 88.7328C172.976 87.1634 174.228 85.9398 173.936 84.0177C173.748 82.7847 173.073 82.1839 173.276 80.7975C173.402 79.9381 173.803 78.9997 174.093 78.1825C174.449 77.1799 175.185 76.0427 173.473 75.9932C172.527 75.9657 172.481 76.4646 171.841 77.3023C170.66 78.8495 169.301 80.2544 168.044 81.7383C165.861 84.3148 163.546 87.0566 161.11 89.4411C158.427 92.0651 156.112 95.23 154.378 98.5894C154.058 99.2098 152.111 102.864 152.942 103.58C153.705 104.238 157.947 102.704 158.721 102.524C162.06 101.749 165.85 101.472 169.005 100.065C170.612 99.3473 174.159 98.4912 175.428 97.3814C176.608 96.3497 176.555 93.8506 175.87 92.3962C173.954 93.5887 160.096 98.0877 161.332 93.8313ZM203.051 73.3246C205.289 71.3034 207.934 69.6821 210.697 68.4806C213.168 67.406 216.238 66.2081 218.987 66.3948C222.413 66.6268 220.982 69.3862 220.969 71.736C220.953 74.8539 219.587 79.3455 223.31 80.9632C224.525 76.6459 227.087 66.4369 233.223 72.094C234.792 67.9429 240.385 66.538 244.324 65.7756C243.61 63.6783 241.441 61.7799 239.938 60.2056C238.058 58.2364 236.574 55.9284 234.69 53.9964C230.969 50.1812 224.228 51.4064 219.516 52.3575C217.944 52.6746 213.385 53.0732 212.623 54.2281C212.145 54.9524 212.412 56.7219 212.058 57.6074C211.57 58.8278 210.737 59.9589 210.068 61.0859C207.627 65.1982 205.145 69.3371 200.969 71.6918L203.051 73.3246ZM216.707 95.4789C214.498 96.3268 212.872 97.7443 210.913 98.938C208.537 100.385 205.75 101.741 203.618 103.529C202.838 104.183 202.399 105.313 201.322 105.386C200.385 105.45 198.958 104.362 198.127 103.981C196.734 103.341 195.403 102.372 194.003 101.802C192.852 101.334 192.343 101.429 191.348 100.518C190.789 103.842 180.63 100.735 178.499 100.685C176.527 100.638 173.822 100.872 171.987 101.664C170.238 102.419 168.872 104.081 167.375 105.213C165.323 106.766 163.366 108.336 161.855 110.485C159.783 113.432 162.909 112.598 164.994 112.42C169.753 112.013 174.383 113.147 178.971 114.241C183.071 115.218 187.121 116.391 191.047 117.976C193.255 118.868 195.578 119.688 197.655 120.847C198.75 121.458 200.525 122.954 201.781 122.523C202.933 122.128 204.081 118.826 204.779 117.507C206.136 114.947 207.562 112.429 208.963 109.894C211.608 105.105 214.228 100.357 216.707 95.4789ZM189.519 158.859C190.88 158.077 193.1 158.287 194.606 157.96C196.307 157.589 198.018 156.986 199.64 156.357C201.283 155.72 202.836 155.069 204.337 154.272C205.023 153.908 205.938 153.549 206.573 153.043C207.084 152.636 207.27 151.879 207.742 151.509C208.972 150.545 209.333 151.15 209.498 149.289C209.677 147.268 208.543 146.123 207.132 144.611C205.868 143.257 204.226 142.087 202.638 141.135C201.936 140.714 201.185 140.24 200.469 139.838C199.384 139.229 197.931 138.217 197.362 139.524C198.547 139.826 198.808 141.34 197.738 141.884C197.151 142.183 196.262 141.744 195.599 142.061C194.577 142.552 193.593 143.92 192.718 144.656C189.845 147.075 187.097 147.982 183.336 148.177C175.479 148.582 167.25 147.685 159.543 146.521C157.56 146.221 155.58 146.546 153.578 146.474C151.63 146.405 149.599 145.979 147.684 145.65C143.996 145.016 140.109 144.495 136.478 143.563C132.087 142.435 127.681 140.977 123.558 139.088C119.603 137.276 115.134 134.282 110.692 134.051C112.587 135.907 115.428 136.622 117.708 137.844C119.571 138.843 122.485 139.484 123.662 141.13C124.429 142.201 124.813 144.168 125.392 145.424C126.032 146.813 126.623 148.225 127.216 149.636C127.811 151.055 128.431 152.475 128.915 153.937C129.214 154.844 129.343 156.724 130.05 157.344C131.178 158.334 134.953 158.773 136.473 159.102C139.311 159.717 142.548 159.635 145.442 159.677C146.639 159.695 147.844 159.858 148.987 159.88C150.593 159.911 150.439 159.633 150.416 158.24C150.403 157.403 150.42 155.881 151.539 156.57C152.302 157.04 151.777 159.12 151.636 159.859C158.025 160.495 164.692 160.816 171.051 160.603C177.304 160.393 183.342 159.587 189.519 158.859ZM218.373 144.192C219.501 136.096 220.875 127.865 222.412 119.874C223.966 111.8 225.835 103.798 227.937 95.7534C226.548 95.4212 225.16 95.0897 223.772 94.7578C223.72 96.4528 223.147 97.9252 222.903 99.6125C222.565 101.941 221.921 104.203 221.535 106.524C220.801 110.936 219.443 115.253 218.246 119.556C217.026 123.943 216.618 128.462 215.497 132.87C214.573 136.502 214.101 140.503 213.585 144.237C212.334 153.295 210.55 162.371 209.193 171.433C207.921 179.93 207.793 188.6 207.866 197.176C207.911 202.412 208.71 207.633 208.668 212.876C208.658 214.172 208.767 215.464 208.834 216.758C208.882 217.671 208.391 220.201 208.807 220.966C209.071 221.45 210.202 221.897 210.602 222.569C211.235 223.633 211.369 224.904 212.386 225.709C213.211 222.383 212.821 217.994 212.641 214.6C212.466 211.33 212.805 207.95 212.872 204.629C213.002 198.116 213.347 191.697 213.681 185.18C214.047 178.034 215.088 170.713 216.105 163.62C217.03 157.171 217.647 150.607 218.373 144.192ZM188.198 42.6654C187.751 42.6236 187.304 42.5823 186.857 42.5405C186.923 43.4826 186.724 45.0082 187.388 45.4997C187.891 45.8721 188.91 45.7497 189.52 45.8688C191.52 46.2596 193.837 46.5866 195.822 45.8745C196.593 45.5979 196.098 45.1645 197.16 45.3446C198.439 45.5619 197.972 45.7644 198.341 46.5624C198.626 47.1783 198.772 48.2263 199.095 48.9658C199.527 49.9553 200.403 51.726 200.029 52.8686C199.665 53.9792 198.307 54.3148 197.729 55.5728C197.3 56.5078 197.401 57.8673 197.178 58.8973C196.881 60.2711 196.505 61.6395 196.338 63.0387C196.129 64.8012 196.201 66.8695 198.385 67.1428C200.412 67.3969 201.861 66.7455 203.22 65.2694C205.816 62.4514 208.78 58.4734 210.305 54.9286C210.483 54.5145 210.921 53.8233 210.86 53.3801C210.74 52.5032 210.687 53.3908 210.409 52.7818C210.144 52.1995 209.727 51.6712 209.482 51.025C208.602 48.7035 207.977 46.2702 207.625 43.8128C207.465 42.6997 207.411 41.6001 207.438 40.476C207.447 40.0921 207.678 38.9398 207.54 38.677C207.4 38.4106 206.67 38.2879 206.442 38.0235C206.02 37.5337 205.295 36.1505 204.828 35.7838C204.253 35.3333 202.966 35.6901 202.732 34.7939C202.358 33.3596 211.203 31.0233 207.071 29.1093C203.986 27.6803 199.254 34.904 198.175 29.2198C197.988 28.2352 198.344 26.8987 197.912 25.9964C197.435 24.9991 196.136 24.6263 195.228 24.1409C194.07 23.5222 192.9 22.8862 191.774 22.2086C191.002 21.7441 189.89 20.5107 189.068 20.3977C189.392 22.0719 188.772 23.7313 188.761 25.4022C190.541 24.9205 191.766 24.9103 193.523 25.7668C194.36 26.1744 197.512 28.4877 195.915 29.6004C194.621 28.8356 193.237 28.1722 191.795 27.7225C191.225 27.5449 190.515 27.3034 189.91 27.2911C188.506 27.2629 188.703 27.4098 188.176 28.4689C187.668 29.4891 187.777 32.1499 186.661 32.8014C185.507 33.475 186.397 32.5321 185.411 32.7498C184.849 32.8742 184.237 33.292 183.722 33.5282C184.427 34.2934 185.85 34.992 186.318 35.8419C187 37.0811 186.763 39.644 186.87 40.9998C187.763 40.6802 188.703 40.6671 189.608 40.4298C190.459 40.2063 191.639 39.2393 191.727 40.661C191.826 42.2451 189.322 42.6654 188.198 42.6654ZM199.819 84.3729C199.888 83.004 199.965 81.6356 200.117 80.2724C200.22 79.357 201.089 76.7019 200.598 75.8978C200.063 75.0233 198.273 74.9676 197.411 74.7577C195.759 74.355 194.175 74.0252 192.496 73.7592C190.952 73.5149 189.497 73.4633 187.941 73.3925C186.246 73.316 185.826 72.8663 185.452 74.7336C185.157 76.2019 184.762 77.7311 184.707 79.2346C184.656 80.6456 185.082 81.8705 183.683 82.8215C186.754 82.8215 190.753 80.0875 193.556 82.5322C197.564 86.0282 190.589 87.0353 188.749 87.8071C190.278 88.5503 192.548 89.1338 193.268 90.8313C194.076 92.7338 192.904 93.5428 191.11 93.695C191.279 94.4284 191.924 94.9047 192.117 95.7866C192.398 97.0793 191.485 96.6513 192.651 97.6514C194.186 98.9679 197.346 99.8482 199.229 100.687C199.67 100.884 200.116 101.069 200.567 101.242C201.273 101.87 201.793 101.75 202.13 100.883C203.096 100.272 203.955 98.9078 204.812 98.1143C206.718 96.3489 208.822 94.7996 211.087 93.5248C210.148 93.136 209.025 94.0147 208.124 93.587C207.396 93.2412 207.67 92.6122 207.234 92.1412C207.409 91.527 207.224 91.3023 206.68 91.4672C206.408 91.4963 206.155 91.45 205.921 91.3293C205.466 90.7646 205.261 90.5796 205.231 89.7076C205.199 88.7823 205.734 88.4557 205.94 87.715C206.609 87.2596 206.593 86.8119 205.895 86.3732C205.607 85.9034 205.45 85.3939 205.425 84.8443C205.292 82.8035 207.154 81.9809 208.575 80.9014C206.031 80.6219 206.128 77.6386 207.888 76.3344C209.712 74.9824 213.575 75.536 215.781 75.8409C216.24 75.9039 217.479 76.4957 217.943 76.1184C218.227 75.8872 218.026 73.9323 218.039 73.5873C218.069 72.8041 218.26 71.8702 218.135 71.091C217.874 69.4594 218.427 70.2812 217.252 70.2357C214.457 70.1273 210.898 72.5675 208.438 73.7179C205.686 75.0057 203.917 75.2038 203.888 78.3965C203.861 81.4199 203.013 84.4322 202.643 87.4073C202.481 88.7066 202.366 95.4568 199.988 92.9658C199.066 91.9996 199.656 90.5137 199.725 89.3221C199.818 87.6823 199.763 86.0172 199.819 84.3729ZM46.0453 185.575C47.4061 185.817 49.6225 185.036 51.1069 184.954C53.7028 184.811 56.3761 184.564 58.9192 184.024C60.9088 183.601 63.176 183.229 64.249 181.303C65.2081 179.582 65.5471 177.426 66.0638 175.548C66.338 174.551 67.0459 173.105 67.0459 172.073C67.0459 170.731 66.8649 170.996 65.4661 170.262C63.6955 169.333 61.9728 168.038 60.063 167.511C59.4854 167.398 58.9073 167.288 58.3289 167.179C57.5805 166.745 57.158 166.959 57.0602 167.819C56.3298 168.589 55.9016 170.009 55.2888 170.909C53.8915 172.963 52.2323 174.363 50.0646 175.547C46.164 177.677 42.5295 179.322 38.3517 180.715C36.0494 181.482 33.9263 182.559 31.6759 183.406C29.873 184.084 27.3848 184.29 25.9998 185.799C24.4372 187.502 26.8391 188.121 28.1741 189.272C29.2679 190.216 29.2892 190.432 30.7855 189.974C31.9003 189.633 32.8885 188.981 33.9591 188.538C37.6259 187.024 42.064 186.016 46.0453 185.575ZM129.848 212.584C128.482 212.288 127.115 211.993 125.748 211.698C127.092 214.207 129.919 217.878 127.89 220.782C127.132 221.867 125.871 222.176 124.744 222.727C123.38 223.393 122.122 224.246 120.832 225.04C115.517 228.313 110.114 231.632 104.513 234.441C106.266 235.007 108.963 235.398 110.768 234.905C112.871 234.331 114.819 233.012 116.978 232.435C120.851 231.402 124.928 230.521 128.863 229.991C132.079 229.558 140.131 230.537 139.74 225.7C139.368 221.107 136.625 216.725 135.809 212.185C133.806 212.63 131.895 212.552 129.848 212.584ZM211.306 139.075C212.864 131.43 213.794 123.655 215.632 116.065C216.548 112.278 217.194 108.439 218.09 104.652C218.506 102.89 218.821 101.111 219.227 99.3518C219.638 97.5712 220.522 95.9278 220.724 94.0871C219.236 94.4554 218.892 97.8647 218.441 99.1472C217.613 101.5 216.71 103.761 215.646 106.014C213.956 109.595 212.162 113.049 210.254 116.521C208.244 120.183 206.119 123.704 203.607 127.048C202.782 128.147 201.662 129.008 201.129 130.213C200.293 132.109 199.941 134.368 199.142 136.341C199.705 136.627 201.158 136.698 201.849 136.834C203.132 137.088 204.032 137.313 205.265 137.923C207.437 138.999 209.262 140.274 210.713 142.208C211.078 141.215 211.173 140.126 211.306 139.075ZM150.76 197.406C150.735 190.043 150.63 182.617 150.751 175.309C150.784 173.279 150.95 171.09 151.244 169.076C151.428 167.81 152.516 165.12 151.801 164.513C151.19 163.994 147.966 164.336 147.175 164.317C145.64 164.282 144.11 164.213 142.572 164.098C142.572 166.827 143.638 169.925 144.134 172.625C144.595 175.143 144.975 177.674 145.356 180.204C146.181 185.681 146.416 191.235 147.311 196.727C148.123 201.707 149.193 206.666 149.784 211.645C150.107 214.378 150.763 216.956 151.272 219.688C151.538 221.113 152.508 226.979 153.73 227.556C153.988 225.452 152.933 222.91 152.744 220.782C152.549 218.585 152.398 216.373 152.042 214.165C151.623 211.572 151.412 208.915 151.252 206.29C151.154 204.684 151.124 203.082 150.985 201.477C150.885 200.313 150.444 198.548 150.76 197.406ZM189.131 98.9483C189.182 98.1466 187.107 98.1789 186.72 97.2574C185.936 95.386 187.723 95.7228 188.822 95.5292C188.43 94.4885 181.094 94.8675 182.804 92.0581C183.989 90.109 188.485 93.0923 189.687 91.2401C190.476 90.0235 188.327 89.8561 187.475 89.7342C186.192 89.5504 183.17 90.1442 183.27 88.4799C183.395 86.3887 189.269 84.9454 190.917 84.3311C190.735 82.8993 183.665 84.9347 182.642 85.515C180.326 86.829 178.551 89.1862 178.212 91.8061C177.816 94.8544 179.362 97.2549 182.406 98.003C183.676 98.3148 184.614 98.3496 185.788 98.8186C186.561 99.1267 189.063 99.8956 189.592 99.1177C189.439 99.0612 189.285 99.0048 189.131 98.9483ZM230.635 79.9884C230.752 78.6867 231.848 76.2362 230.586 75.381C228.819 74.184 228.087 76.1564 227.686 77.3411C227.197 78.7878 225.139 82.3288 226.939 83.2303C227.357 83.4398 229.341 83.1959 229.691 83.0576C230.666 83.3118 230.98 82.9467 230.635 81.9617V79.9884ZM187.517 185.111C187.406 181.553 188.999 177.276 189.902 173.791C190.925 169.843 191.465 165.816 192.549 161.911C191.343 162.057 190.125 162.175 188.934 162.417C187.308 162.747 187.279 162.695 187.396 164.29C187.57 166.685 187.342 169.033 187.218 171.427C186.97 176.22 187.574 181.093 187.173 185.856C187.53 185.947 187.645 185.698 187.517 185.111ZM232.529 91.8683C236.435 92.4661 240.178 93.7045 243.733 95.3684C245.692 96.2855 247.85 97.2709 250.039 97.6371C252.472 98.0443 255.051 97.8532 257.535 98.0103C258.411 98.0656 260.713 98.4912 261.567 97.976C262.413 97.4657 262.347 96.601 262.386 95.5701C262.489 92.9187 261.289 90.3226 260.21 87.9438C259.284 85.903 258.584 84.3446 257.147 82.5891C255.303 80.3342 253.696 77.901 251.969 75.5475C250.666 73.7735 249.35 72.0249 248.022 70.2529C247.072 68.9843 247.117 68.5477 245.686 68.6897C244.276 68.8296 242.857 69.6628 241.529 70.1044C239.559 70.76 237.172 71.1197 235.375 72.1677C234.213 72.8454 234.161 72.9702 234.175 74.1529C234.187 75.2545 234.543 76.598 235.202 77.4598C236.57 79.249 238.84 80.1959 240.787 81.0884C241.914 81.6045 242.887 82.3366 243.89 83.0486C244.971 83.8163 247.151 84.2685 247.978 85.1434C250.385 87.6917 246.003 87.1879 244.778 87.111C242.136 86.9449 239.508 86.9702 236.846 86.9682C233.941 86.9661 231.059 86.8311 228.194 86.9256C226.517 86.9809 224.592 86.1301 223.505 84.7117C222.979 84.0246 222.774 83.3752 222.086 82.6623C221.184 81.7289 220.399 80.7455 219.302 80.0232C217.507 78.8414 214.245 78.1727 212.108 78.6138C212.873 78.7206 216.472 79.9459 214.888 81.4858C214.695 81.6732 212.38 81.796 211.877 82.0272C210.969 82.4442 209.824 83.0503 209.292 83.9309C210.842 83.6711 216.594 83.3703 213.66 86.3458C212.94 87.0762 210.872 87.8051 212.631 88.5818C213.035 88.7602 213.844 88.5077 214.365 88.6685C215.138 88.9079 215.77 89.5484 216.495 89.8897C218.55 90.8591 221.382 91.457 223.527 91.2446C226.493 90.9504 229.583 91.4799 232.529 91.8683ZM153.883 181.525C153.984 185.799 153.83 190.099 153.921 194.393C154.019 198.979 154.607 203.473 154.887 208.012C155.139 212.081 155.689 216.072 156.135 220.121C156.391 222.454 156.687 224.684 157.082 226.998C157.452 229.164 157.515 231.073 154.925 231.655C149.975 232.769 149.206 225.647 148.249 222.646C146.82 218.168 145.905 213.466 145.197 208.823C143.879 200.177 142.128 191.651 141.444 182.931C141.023 177.561 140.413 172.247 140.066 166.882C139.998 165.831 140.267 164.211 139.343 163.743C138.788 163.462 137.259 163.46 136.558 163.256C134.605 162.688 132.804 161.851 130.899 160.983C132.251 168.054 132.698 175.089 133.712 182.222C134.25 186.006 135.28 189.928 136.172 193.653C137.097 197.513 137.303 201.669 138.37 205.445C138.84 207.109 139.237 207.787 138.555 209.495C137.719 211.592 138.274 212.094 139.323 214.153C141.253 217.942 142.726 222.413 142.399 226.684C142.132 230.172 139.497 231.998 136.232 232.94C132.148 234.117 127.871 233.977 123.763 235.314C120.183 236.478 116.546 237.338 113.07 238.875C111.668 239.495 110.337 240.23 108.78 240.344C106.646 240.499 105.206 239.26 103.19 239.002C101.93 238.841 100.085 239.443 99.3589 238.122C98.7834 237.074 99.4347 234.789 100.157 233.946C102.187 231.577 106.251 229.513 108.987 228.115C112.142 226.504 115.194 224.487 118.116 222.408C119.888 221.147 121.694 219.938 123.464 218.675C124.635 217.839 125.08 217.833 124.961 216.505C124.865 215.446 124.388 214.419 124.304 213.335C124.24 212.504 124.532 211.372 124.139 210.829C123.85 210.43 122.766 210.148 122.34 209.845C120.782 208.74 120.427 207.373 119.72 205.692C118.112 201.875 116.265 198.165 114.712 194.317C111.379 186.055 109.345 177.368 106.582 168.937C103.759 160.324 101.235 151.283 99.6799 142.347C97.5994 142.98 95.636 145.781 93.9792 147.167C91.7407 149.041 89.4473 150.852 87.2522 152.777C83.6542 155.932 80.0111 159.001 77.0377 162.779C75.6053 164.599 74.4324 166.557 73.1355 168.469C72.3863 169.574 71.6879 170.824 70.8765 171.875C70.7463 172.043 70.7426 172.39 70.6022 172.533C70.2931 172.849 69.7032 172.429 69.505 172.636C68.2826 173.915 68.2986 177.545 67.9174 179.232C67.3926 181.556 66.8031 184.229 64.9879 185.832C62.184 188.306 57.0131 188.69 53.4646 188.818C48.9106 188.983 44.4929 190.252 40.1723 191.615C38.1569 192.251 36.1943 192.994 34.1715 193.611C33.0081 193.967 31.6808 194.675 30.4384 194.539C28.94 194.375 27.7569 193.114 26.6593 192.177C24.9035 190.678 23.2778 189.2 23.3344 186.741C23.3978 184.137 24.8081 182.172 27.0298 180.879C31.3251 178.379 36.1292 176.776 40.7589 175.048C42.5332 174.386 44.052 173.653 45.7485 172.761C48.1454 171.501 50.9047 170.472 53.0314 168.808C53.6586 168.317 55.963 166.813 56.1595 166.037C56.1853 165.936 55.6093 164.751 55.6069 164.563C55.6011 164.08 55.8873 163.557 56.0633 163.143C57.1711 160.538 59.0293 158.031 60.4499 155.575C63.0515 151.077 65.663 146.555 68.6793 142.324C74.694 133.89 81.4505 125.631 88.7428 118.268C92.2979 114.679 95.3699 110.608 98.9749 107.068C100.403 105.666 101.911 104.524 103.671 103.614C105.633 102.599 107.835 102.401 110.084 102.091C115.533 101.341 120.084 102.953 125.2 104.355C130.036 105.681 134.878 106.8 139.741 108.181C145.083 109.697 150.369 111.152 155.693 112.805C158.538 113.688 161.465 114.23 164.323 115.078C165.7 115.486 170.903 118.041 172.05 117.201C168.436 115.505 164.732 113.959 160.865 112.935C159.726 112.634 158.998 112.968 159.041 111.66C159.064 110.946 159.865 109.983 160.154 109.396C160.845 107.991 161.627 106.617 162.304 105.207C159.852 105.903 153.262 108.313 151.414 105.822C149.481 103.214 151.095 98.1028 152.307 95.5501C155.47 88.8862 160.85 83.3253 166.092 78.302C167.226 77.2159 169.671 75.7975 170.275 74.4144C170.459 73.9937 170.059 73.3757 170.473 72.8294C170.72 72.5045 171.71 72.2823 172.106 71.932C173.547 70.656 174.697 67.9711 175.693 66.2982C176.737 64.5463 177.677 62.6491 178.987 61.0773C181.131 58.5069 183.345 55.7823 186.817 55.1811C188.519 54.8865 190.328 55.0436 191.96 54.4556C193.934 53.7443 195.809 52.6239 197.802 51.8873C197.307 50.8708 196.907 49.2543 195.947 49.1434C195.024 49.0362 193.669 49.8301 192.612 49.8244C191.068 49.8158 189.75 49.569 188.261 49.2748C186.612 48.9486 186.068 49.008 185.468 47.2192C184.837 45.3454 184.996 43.1691 185.001 41.2228C185.004 40.2718 185.192 39.0912 185.111 38.1577C184.99 36.7512 184.716 36.6972 183.614 35.8026C182.236 34.685 180.538 33.2061 182.226 31.2643C183.137 30.2151 185.011 31.0311 185.819 29.9036C186.641 28.7554 186.602 25.8707 186.852 24.5219C184.316 25.7684 185.246 21.1086 185.246 19.9873C185.245 18.3557 184.152 15.4215 185.726 14.0641C186.457 13.4339 187.001 13.9553 187.837 13.5931C188.791 13.1798 189.392 12.0958 190.408 11.6755C192.425 10.8398 194.486 11.8461 196.558 11.68C198.934 11.4897 201.269 11.1222 203.658 11.5036C204.79 11.6837 205.267 12.1138 206.225 12.5958C207.146 13.0595 208.081 13.1863 209.081 13.4847C209.972 13.7503 210.752 13.8845 211.354 14.6604C211.829 15.2742 211.636 16.3067 212.116 16.8358C212.59 17.3572 213.527 17.2815 214.091 17.9006C214.633 18.4948 214.957 19.477 215.239 20.2164C215.62 21.2125 215.664 21.5865 216.335 22.3837C216.919 23.0794 217.76 23.6388 218.248 24.4323C219.396 26.3029 219.426 29.0078 219.059 31.1121C218.935 31.8286 217.896 33.6808 218.059 34.2905C218.213 34.8708 219.187 34.7182 219.628 35.0853C220.009 35.4024 220.345 36.8155 220.645 36.9018C221.294 37.088 222.095 35.8059 222.587 35.6136C223.442 35.2792 223.8 34.9363 224.273 36.1963C224.624 37.1314 224.135 38.4004 223.878 39.2929C223.55 40.4289 223.189 41.797 222.321 42.656C221.3 43.6659 220.484 43.1139 219.358 43.6577C217.671 44.4729 218.169 47.0216 216.093 47.75C214.115 48.444 211.935 46.2604 210.439 45.2566C210.749 47.6935 211.915 50.0417 211.355 52.5392C215.905 50.7566 220.405 48.2267 225.364 47.6694C227.892 47.385 230.446 47.0482 232.833 48.0978C235.626 49.3263 237.338 52.0362 239.229 54.2878C242.783 58.5196 246.429 62.6327 249.84 67.0008C252.969 71.0075 255.606 75.6502 259.05 79.402C262.542 83.2066 265.177 89.3793 264.795 94.6477C264.76 95.1233 264.392 96.2036 264.45 96.7164C264.495 97.1092 264.852 97.6073 264.846 97.924C264.827 98.99 264.474 99.6039 263.458 100.195C261.696 101.221 259.071 101.74 257.081 101.995C254.436 102.333 251.196 102.37 248.55 102.008C245.821 101.635 243.422 100.108 240.912 99.1844C238.71 98.3741 236.499 97.8683 234.185 97.3515C232.909 97.0663 231.497 96.2769 230.708 97.0409C229.984 97.7431 229.834 101.346 229.665 102.304C227.835 112.688 225.66 122.719 223.733 133.05C221.55 144.76 220.057 156.465 218.538 168.274C217.158 179.008 216.707 189.864 216.399 200.589C216.251 205.705 216.23 210.766 216.261 215.886C216.279 218.753 217.712 228.324 213.462 228.69C210.964 228.906 208.966 225.325 208.296 223.372C207.291 220.438 206.767 217.278 206.607 214.196C206.283 207.956 205.857 201.712 205.606 195.469C205.333 188.706 205.68 181.819 206.236 175.078C206.795 168.292 208.205 161.605 208.637 154.809C207.34 156.661 206.925 157.008 204.764 157.815C202.503 158.659 200.328 159.657 198.047 160.444C197.27 160.712 196.059 160.88 195.423 161.318C194.249 162.127 195.02 161.209 194.645 162.783C194.245 164.465 194.169 166.483 194.063 168.211C193.563 176.32 191.317 184.371 190.281 192.437C190.031 194.384 190.387 202.652 187.036 200.046C184.455 198.04 184.506 191.737 184.139 188.785C183.65 184.85 183.922 180.804 183.999 176.845C184.087 172.336 184.163 167.607 185.239 163.205C183.314 162.875 180.637 163.773 178.699 163.924C177.022 164.054 175.35 164.137 173.681 164.229C169.703 164.447 165.605 164.622 161.559 164.544C160.823 164.529 156.012 163.856 155.397 164.399C155.197 164.575 155.136 167.001 155.099 167.297C154.957 168.412 154.765 169.525 154.622 170.634C154.165 174.178 153.752 177.983 153.883 181.525Z" fill="black"/>
<path fill-rule="evenodd" clip-rule="evenodd" d="M225.336 215.2C228.372 216.387 231.594 216.817 234.656 217.898C237.394 218.865 239.936 220.164 242.631 221.146C242.789 219.896 242.872 217.778 242.411 216.6C241.757 214.931 240.037 214.89 238.343 214.296C234.22 212.85 229.883 212.545 225.79 210.855C226.491 212.204 226.177 213.99 225.336 215.2ZM277.748 210.837C271.19 211.029 264.924 212.555 258.461 213.499C255.316 213.958 252.168 214.367 249.021 214.796C247.809 214.96 245.602 214.766 244.721 215.815C243.991 216.684 244.791 219.649 244.467 220.922C245.792 221.02 248.146 219.782 249.584 219.577C251.824 219.258 254.035 218.812 256.298 218.67C259.883 218.444 263.405 218.252 266.983 217.853C270.622 217.447 274.144 216.693 277.812 216.418C279.595 216.284 280.312 216.618 280.417 214.736C280.458 214 280.559 212.768 280.353 212.042C280.683 211.15 280.39 210.717 279.475 210.742C278.894 210.677 278.318 210.708 277.748 210.837ZM265.065 204.829C266.838 204.663 268.619 204.424 270.397 204.324C270.757 204.304 272.586 204.414 272.884 204.079C273.307 203.605 272.836 201.871 272.759 201.334C272.495 199.509 272.204 198.448 270.213 198.444C268.534 198.44 266.795 198.795 265.121 198.959C257.526 199.704 249.969 200.018 242.457 201.432C242.914 203.379 243.434 205.388 242.887 207.379C246.49 207.565 250.446 206.871 253.968 206.16C257.567 205.433 261.386 205.072 265.065 204.829ZM253.043 186.496C250.33 186.509 247.462 187.704 244.784 187.437C244.744 187.935 245.601 187.522 245.837 187.988C246.343 187.989 246.519 188.154 246.365 188.484C246.374 188.709 246.259 188.84 246.02 188.878C245.902 188.889 245.783 188.899 245.666 188.909C245.148 188.926 245.063 189.275 245.412 189.958C245.262 190.803 245.486 191.877 245.519 192.726C250.331 192.071 255.006 191.39 259.853 191.098C262.14 190.96 264.427 190.961 266.712 190.772C269.226 190.565 271.97 191.009 274.428 190.539C275.742 190.287 275.604 190.304 275.509 188.596C275.45 187.558 275.472 186.325 274.627 185.568C273.215 184.303 270.001 185.034 268.313 185.079C263.229 185.213 258.059 185.686 253.043 186.496ZM255.821 210.898C263.091 210.238 270.306 208.791 277.617 208.791C277.1 208.275 275.974 208.142 275.331 207.86C274.597 207.539 273.905 206.855 273.188 206.574C271.749 206.011 270.286 206.794 268.808 207.132C265.244 207.948 261.587 207.976 258.017 208.776C254.327 209.604 250.588 210.366 246.829 210.787C245.04 210.987 243.119 211.393 241.351 210.921C241.207 210.818 241.063 210.715 240.92 210.613C240.765 209.955 240.336 209.779 239.632 210.086C238.739 209.915 237.6 210.135 236.7 210.158C236.664 210.517 239.988 211.644 240.622 211.923C242.149 212.596 243.185 213.088 244.816 212.8C248.489 212.151 252.102 211.377 255.821 210.898ZM230.248 189.643C230.532 190.751 231.725 190.247 232.752 190.369C234.131 190.532 235.502 191.008 236.837 191.367C239.262 192.018 241.688 192.661 244.102 193.35C244.007 192.374 244.223 190.155 243.707 189.289C243.167 188.382 240.603 187.985 239.409 187.708C236.4 187.012 233.186 187.408 230.129 187.555C230.183 188.25 230.223 188.946 230.248 189.643ZM259.153 196.572C262.008 196.33 264.867 196.142 267.73 196.042C271.004 195.927 268.624 195.404 268.555 193.407C264.253 194.094 259.912 194.229 255.623 194.816C252.069 195.302 247.836 196.573 244.211 195.89C242.502 195.569 240.756 195.445 238.938 195.263C237.222 195.091 235.603 194.292 233.908 194.093C232.006 193.87 230.062 194.94 228.169 195.222C227.367 195.342 227.181 195.886 226.802 194.921C226.409 193.919 227.534 193.1 227.977 192.502C228.495 191.802 228.28 192.938 228.567 191.846C228.648 191.539 228.429 190.77 228.389 190.44C228.288 189.607 228.026 188.702 227.985 187.87C227.948 187.106 227.941 185.939 228.771 185.493C229.277 185.221 229.636 185.618 230.077 185.541C233.523 184.942 237.576 184.893 241.07 185.471C244.858 186.098 248.119 184.438 251.853 183.765C256.232 182.976 260.659 182.858 265.076 182.524C268.854 182.24 275.756 180.761 277.195 185.586C277.602 186.953 278.196 190.717 277.1 191.88C275.661 193.407 272.33 192.92 270.469 193.317C270.748 194.109 271.576 194.647 271.29 195.589C273.897 195.713 274.358 198.175 274.766 200.474C275.189 202.852 274.364 203.798 276.637 205.037C279.806 206.763 283.162 208.506 283.1 212.617C283.069 214.684 282.837 217.801 280.715 218.873C278.639 219.922 275.258 219.745 272.97 220.126C268.539 220.864 264.092 221.729 259.634 222.172C254.887 222.644 250.062 223.031 245.307 223.242C242.716 223.358 240.478 223.749 237.976 222.877C235.516 222.02 233.11 221.394 230.572 220.758C228.066 220.13 220.396 219.285 222.631 215C222.989 214.314 224.211 213.769 224.409 213.121C224.727 212.075 223.651 211.259 223.696 210.314C223.778 208.585 225.729 208.368 227.076 208.368C224.768 206.924 227.859 205.214 227.841 203.988C227.809 201.828 225.122 200.427 224.97 198.616C224.601 194.21 238.578 198.798 240.73 199.751C239.074 202.206 231.392 200.081 229.103 199.709C229.416 200.529 229.714 201.266 229.804 202.105C229.877 202.789 229.616 203.571 229.855 204.26C230.233 205.348 230.22 205.14 231.557 205.437C232.546 205.656 233.524 205.91 234.509 206.142C236.024 206.5 238.405 207.458 239.906 207.406C241.222 207.36 240.962 207.768 241.203 206.307C241.333 205.521 241.111 204.686 240.979 203.917C240.703 202.304 240.298 200.778 241.707 199.621C243.05 198.517 245.88 197.992 247.527 197.603C251.183 196.739 255.402 196.528 259.153 196.572Z" fill="black"/>
<path fill-rule="evenodd" clip-rule="evenodd" d="M276.549 169.047C272.579 168.382 268.545 168.218 264.528 168.42C264.745 169.414 264.963 170.408 265.181 171.401C268.944 170.432 272.762 169.864 276.549 169.047ZM244.265 176.758C242.673 176.642 243.78 177.354 244.174 178.396C244.657 179.676 244.553 181.295 244.664 182.643C249.323 180.866 254.743 179.827 259.696 179.229C262.045 178.945 264.428 178.864 266.79 178.743C267.488 178.707 270.01 179 270.521 178.53C270.9 178.18 270.634 176.253 270.269 175.828C268.287 173.517 260.623 175.512 257.851 175.719C253.305 176.059 248.842 176.871 244.265 176.758ZM250.881 170.565C255.006 170.962 258.989 170.924 263.115 171.542C262.802 168.92 263.176 168.251 260.201 168.111C257.55 167.988 254.908 167.888 252.27 167.889C246.336 167.892 240.417 167.779 234.478 167.779V170.444C239.971 169.881 245.377 170.897 250.881 170.565ZM231.046 180.365C233.649 180.354 236.11 181.336 238.713 181.59C240.271 181.743 239.782 181.936 240.863 182.718C242.546 183.937 243.031 183.288 242.82 181.632C242.105 176.03 235.012 177.286 230.925 176.975C231.193 178.311 230.576 179.444 229.666 180.365H231.046ZM259.184 173.172C255.44 173.233 251.691 173.446 247.973 173.368C246.309 173.333 244.152 173.003 242.521 173.287C241.326 173.495 240.327 174.104 239.016 174.33C240.941 175.367 241.917 174.666 243.941 174.43C245.963 174.195 248.016 174.199 250.046 174.076C253.38 173.874 256.935 173.076 260.22 173.293C260.28 172.83 259.935 172.79 259.184 173.172ZM229.485 185.305C227.767 185.301 230.131 183.348 230.441 183.154C228.539 183.154 228.079 182.013 228.63 180.18C229.149 178.454 229.533 178.982 228.227 177.545C227.243 176.462 227.094 175.665 228.254 174.455C229.434 173.224 231.823 173.572 232.868 172.555C234.648 170.826 232.351 167.381 234.817 166.055C236.484 165.16 239.171 165.271 241.011 165.082C242.79 164.899 244.631 164.864 246.421 164.84C250.324 164.786 254.379 165.441 258.265 165.801C259.681 165.932 261.274 166.504 262.67 166.505C264.093 166.507 265.584 166.19 267.054 166.226C268.762 166.269 270.408 166.143 272.17 166.424C273.52 166.639 276.672 166.752 277.704 167.755C281.142 171.1 272.989 172.636 271.586 173.011C273.014 174.575 272.955 176.643 272.739 178.612C273.419 178.612 274.591 178.316 274.942 179.079C275.379 180.025 273.762 180.271 273.38 180.381C271.18 181.017 268.605 180.843 266.338 181.073C261.806 181.535 257.329 181.801 252.843 182.659C250.658 183.078 248.485 183.596 246.301 184.003C245.924 184.074 245.544 184.13 245.164 184.173C244.579 184.122 244.39 184.489 244.596 185.275C243.99 185.571 241.729 184.833 241.03 184.72C237.029 184.071 233.449 184.34 229.485 185.305Z" fill="black"/>
<path fill-rule="evenodd" clip-rule="evenodd" d="M310.286 224.161C307.705 226.192 305.306 228.108 302.511 229.873C304.487 229.811 311.057 226.661 310.286 224.161ZM309.278 220.851C307.869 219.64 306.47 219.764 304.726 219.397C303.121 219.059 301.561 218.478 299.959 218.09C298.701 217.787 297.456 217.376 296.204 217.089C294.434 216.683 294.26 217.129 292.633 218.056C286.862 221.345 280.405 223.607 274.327 226.276C276.112 227.847 280.126 227.915 282.356 228.416C283.985 228.781 285.534 229.281 287.094 229.86C288.546 230.399 290.886 231.639 292.418 231.68C293.711 231.715 294.762 230.443 295.875 229.758C297.339 228.856 298.796 227.97 300.272 227.091C303.395 225.23 306.314 222.95 309.278 220.851ZM283.2 234.171C282.534 233.53 280.529 233.558 279.694 233.363C278.049 232.978 276.428 232.579 274.76 232.29C272.055 231.822 267.781 231.613 267.487 228.103C267.242 225.186 270.767 224.493 272.828 223.505C275.928 222.019 279.091 220.647 282.27 219.336C285.25 218.107 288.274 217.068 291.308 216.006C291.9 215.799 292.38 215.827 292.863 215.354C293.245 214.98 293.127 214.254 293.545 213.864C294.501 212.969 295.742 213.44 296.892 213.669C299.502 214.19 302.212 214.873 304.701 215.839C307.287 216.843 309.601 217.052 310.222 219.984C311.544 219.364 312.539 219.274 312.38 221.097C312.334 221.632 311.945 222.215 311.852 222.767C311.714 223.582 311.955 224.44 311.819 225.257C311.324 228.226 307.321 230.425 304.84 231.591C301.781 233.029 297.834 235.153 294.419 235.433C290.779 235.732 286.813 234.303 283.2 234.171Z" fill="black"/>
<path fill-rule="evenodd" clip-rule="evenodd" d="M236.876 184.913C235.791 184.92 234.706 184.927 233.621 184.934C234.704 184.731 235.789 184.728 236.876 184.913Z" fill="black"/>
<path fill-rule="evenodd" clip-rule="evenodd" d="M173.4 70.1099C173.074 70.6521 172.749 71.1944 172.423 71.7375C172.534 71.0382 172.782 70.439 173.4 70.1099Z" fill="black"/>
<path fill-rule="evenodd" clip-rule="evenodd" d="M236.876 200.472C237.529 200.478 238.181 200.483 238.83 200.489C238.176 200.484 237.526 200.478 236.876 200.472Z" fill="black"/>
<path fill-rule="evenodd" clip-rule="evenodd" d="M238.83 184.93C238.178 184.923 237.527 184.918 236.876 184.911C237.53 184.733 238.181 184.739 238.83 184.93Z" fill="black"/>
<path fill-rule="evenodd" clip-rule="evenodd" d="M264.736 92.5708C264.717 91.9195 264.699 91.2681 264.681 90.6177C264.7 91.2694 264.717 91.9199 264.736 92.5708Z" fill="black"/>
<path fill-rule="evenodd" clip-rule="evenodd" d="M154.051 190.878C154.038 190.335 154.025 189.792 154.011 189.25C154.025 189.794 154.038 190.336 154.051 190.878Z" fill="black"/>
<path fill-rule="evenodd" clip-rule="evenodd" d="M171.772 164.347C172.208 164.347 172.642 164.348 173.074 164.349C172.638 164.349 172.205 164.348 171.772 164.347Z" fill="black"/>
<path fill-rule="evenodd" clip-rule="evenodd" d="M230.04 47.4272C229.497 47.4666 228.955 47.5057 228.413 47.5451C228.955 47.5057 229.498 47.4666 230.04 47.4272Z" fill="black"/>
<path fill-rule="evenodd" clip-rule="evenodd" d="M216.23 206.503C216.214 206.068 216.197 205.633 216.182 205.201C216.198 205.636 216.214 206.07 216.23 206.503Z" fill="black"/>
<path fill-rule="evenodd" clip-rule="evenodd" d="M216.875 189.901C216.863 189.467 216.851 189.033 216.839 188.599C216.851 189.034 216.863 189.468 216.875 189.901Z" fill="black"/>
<path fill-rule="evenodd" clip-rule="evenodd" d="M205.766 197.388C205.781 197.823 205.797 198.258 205.812 198.691C205.797 198.255 205.781 197.822 205.766 197.388Z" fill="black"/>
<path fill-rule="evenodd" clip-rule="evenodd" d="M174.376 164.029C174.703 164.025 175.03 164.02 175.353 164.016C175.026 164.02 174.701 164.025 174.376 164.029Z" fill="black"/>
<path fill-rule="evenodd" clip-rule="evenodd" d="M268.777 180.971C269.104 180.957 269.43 180.942 269.754 180.928C269.426 180.943 269.102 180.957 268.777 180.971Z" fill="black"/>
<path fill-rule="evenodd" clip-rule="evenodd" d="M206.412 207.805C206.431 208.24 206.449 208.675 206.468 209.107C206.449 208.671 206.431 208.238 206.412 207.805Z" fill="black"/>
<path fill-rule="evenodd" clip-rule="evenodd" d="M241.304 205.526C241.282 205.961 241.26 206.396 241.238 206.828C241.26 206.394 241.282 205.96 241.304 205.526Z" fill="black"/>
<path fill-rule="evenodd" clip-rule="evenodd" d="M203.785 11.5638C203.326 11.5052 202.865 11.4471 202.405 11.3885C202.861 11.4939 203.361 11.1028 203.785 11.5638Z" fill="black"/>
<path fill-rule="evenodd" clip-rule="evenodd" d="M183.998 178.508C183.986 178.943 183.973 179.378 183.96 179.81C183.972 179.375 183.985 178.942 183.998 178.508Z" fill="black"/>
<path fill-rule="evenodd" clip-rule="evenodd" d="M156.018 218.222C155.996 217.787 155.973 217.353 155.951 216.92C155.973 217.354 155.996 217.788 156.018 218.222Z" fill="black"/>
<path fill-rule="evenodd" clip-rule="evenodd" d="M261.291 181.611C261.618 181.604 261.944 181.597 262.267 181.591C261.939 181.598 261.615 181.604 261.291 181.611Z" fill="black"/>
<path fill-rule="evenodd" clip-rule="evenodd" d="M150.772 102.662C150.775 103.097 150.777 103.531 150.779 103.964C150.777 103.529 150.775 103.095 150.772 102.662Z" fill="black"/>
<path fill-rule="evenodd" clip-rule="evenodd" d="M143.943 200.318C143.941 200.753 143.94 201.188 143.938 201.62C143.939 201.185 143.941 200.751 143.943 200.318Z" fill="black"/>
<path fill-rule="evenodd" clip-rule="evenodd" d="M225.074 197.714C225.062 198.148 225.05 198.583 225.038 199.016C224.86 198.57 224.88 198.137 225.074 197.714Z" fill="black"/>
<path fill-rule="evenodd" clip-rule="evenodd" d="M216.536 195.761C216.533 195.326 216.529 194.892 216.526 194.459C216.529 194.894 216.533 195.327 216.536 195.761Z" fill="black"/>
<path fill-rule="evenodd" clip-rule="evenodd" d="M283.1 234.322C283.427 234.33 283.754 234.339 284.077 234.349C283.749 234.34 283.424 234.331 283.1 234.322Z" fill="black"/>
<path fill-rule="evenodd" clip-rule="evenodd" d="M271.381 193C271.599 192.996 271.817 192.992 272.032 192.988C271.813 192.992 271.598 192.996 271.381 193Z" fill="black"/>
<path fill-rule="evenodd" clip-rule="evenodd" d="M263.244 193.971C263.462 193.97 263.68 193.97 263.895 193.97C263.676 193.97 263.46 193.971 263.244 193.971Z" fill="black"/>
<path fill-rule="evenodd" clip-rule="evenodd" d="M136.473 196.086C136.46 195.761 136.446 195.435 136.434 195.11C136.447 195.436 136.46 195.762 136.473 196.086Z" fill="black"/>
<path fill-rule="evenodd" clip-rule="evenodd" d="M269.754 195.839C269.471 196.125 269.107 195.957 268.777 195.975C269.103 195.93 269.429 195.885 269.754 195.839Z" fill="black"/>
<path fill-rule="evenodd" clip-rule="evenodd" d="M231.017 185.424C230.587 185.627 230.153 185.655 229.715 185.438C230.149 185.434 230.583 185.429 231.017 185.424Z" fill="black"/>
<path fill-rule="evenodd" clip-rule="evenodd" d="M259.337 196.58C258.903 196.577 258.469 196.573 258.035 196.569C258.469 196.573 258.904 196.577 259.337 196.58Z" fill="black"/>
<path fill-rule="evenodd" clip-rule="evenodd" d="M141.674 183.717C141.666 184.043 141.657 184.369 141.648 184.693C141.657 184.366 141.665 184.041 141.674 183.717Z" fill="black"/>
<path fill-rule="evenodd" clip-rule="evenodd" d="M216.506 201.295C216.523 200.968 216.54 200.642 216.556 200.318C216.54 200.645 216.523 200.97 216.506 201.295Z" fill="black"/>
<path fill-rule="evenodd" clip-rule="evenodd" d="M261.29 182.522C260.856 182.559 260.422 182.595 259.988 182.632C260.423 182.595 260.856 182.559 261.29 182.522Z" fill="black"/>
<path fill-rule="evenodd" clip-rule="evenodd" d="M154.045 181.438C154.036 181.112 154.027 180.786 154.018 180.461C154.026 180.788 154.036 181.113 154.045 181.438Z" fill="black"/>
<path fill-rule="evenodd" clip-rule="evenodd" d="M208.432 156.373C208.406 156.699 208.38 157.025 208.355 157.349C208.381 157.023 208.406 156.698 208.432 156.373Z" fill="black"/>
<path fill-rule="evenodd" clip-rule="evenodd" d="M267.801 166.223C267.366 166.448 266.932 166.42 266.499 166.221C266.932 166.222 267.367 166.223 267.801 166.223Z" fill="black"/>
<path fill-rule="evenodd" clip-rule="evenodd" d="M216.234 211.386C216.215 211.06 216.196 210.734 216.177 210.409C216.196 210.736 216.215 211.06 216.234 211.386Z" fill="black"/>
<path fill-rule="evenodd" clip-rule="evenodd" d="M216.226 213.99C216.212 213.664 216.198 213.338 216.185 213.013C216.199 213.34 216.213 213.665 216.226 213.99Z" fill="black"/>
<path fill-rule="evenodd" clip-rule="evenodd" d="M154.675 171.021C154.68 170.695 154.684 170.369 154.689 170.045C154.684 170.372 154.68 170.696 154.675 171.021Z" fill="black"/>
<path fill-rule="evenodd" clip-rule="evenodd" d="M247.293 222.951C247.511 222.945 247.729 222.938 247.944 222.933C247.725 222.939 247.509 222.945 247.293 222.951Z" fill="black"/>
<path fill-rule="evenodd" clip-rule="evenodd" d="M142.339 225.709C142.321 225.383 142.304 225.057 142.286 224.732C142.304 225.058 142.321 225.384 142.339 225.709Z" fill="black"/>
<path fill-rule="evenodd" clip-rule="evenodd" d="M212.788 228.469C213.006 228.474 213.224 228.477 213.439 228.482C213.22 228.478 213.004 228.474 212.788 228.469Z" fill="black"/>
<path fill-rule="evenodd" clip-rule="evenodd" d="M212.923 200.644C212.942 199.667 212.96 198.69 212.978 197.714C212.959 198.691 212.942 199.667 212.923 200.644Z" fill="black"/>
<path fill-rule="evenodd" clip-rule="evenodd" d="M187.543 164.836C187.554 165.596 187.565 166.357 187.577 167.115C187.566 166.354 187.554 165.595 187.543 164.836Z" fill="black"/>
<path fill-rule="evenodd" clip-rule="evenodd" d="M131.407 212.515C130.864 212.522 130.32 212.528 129.78 212.535C130.325 212.529 130.866 212.522 131.407 212.515Z" fill="black"/>
<path fill-rule="evenodd" clip-rule="evenodd" d="M176.004 147.759C175.46 147.75 174.916 147.742 174.376 147.734C174.922 147.743 175.463 147.751 176.004 147.759Z" fill="black"/>
<path fill-rule="evenodd" clip-rule="evenodd" d="M162.006 160.443C162.549 160.442 163.092 160.442 163.634 160.441C163.091 160.441 162.549 160.442 162.006 160.443Z" fill="black"/>
<path fill-rule="evenodd" clip-rule="evenodd" d="M169.168 147.41C168.732 147.417 168.297 147.425 167.866 147.432C168.303 147.424 168.735 147.417 169.168 147.41Z" fill="black"/>
<path fill-rule="evenodd" clip-rule="evenodd" d="M134.012 212.529C133.576 212.526 133.141 212.524 132.709 212.522C133.146 212.524 133.579 212.526 134.012 212.529Z" fill="black"/>
<path fill-rule="evenodd" clip-rule="evenodd" d="M192.605 46.2404C193.148 46.2026 193.691 46.1652 194.233 46.1274C193.69 46.1652 193.148 46.2026 192.605 46.2404Z" fill="black"/>
<path fill-rule="evenodd" clip-rule="evenodd" d="M199.899 84.4328C199.92 83.8901 199.94 83.3474 199.96 82.8052C199.939 83.3483 199.92 83.8905 199.899 84.4328Z" fill="black"/>
<path fill-rule="evenodd" clip-rule="evenodd" d="M186.746 89.478C186.419 89.478 186.093 89.4784 185.77 89.4787C186.097 89.4787 186.422 89.4784 186.746 89.478Z" fill="black"/>
<path fill-rule="evenodd" clip-rule="evenodd" d="M159.077 146.439C158.75 146.443 158.423 146.446 158.1 146.45C158.428 146.446 158.752 146.443 159.077 146.439Z" fill="black"/>
<path fill-rule="evenodd" clip-rule="evenodd" d="M151.59 159.738C152.024 159.773 152.458 159.808 152.892 159.844C152.458 159.808 152.024 159.773 151.59 159.738Z" fill="black"/>
<path fill-rule="evenodd" clip-rule="evenodd" d="M150.766 176.23C150.772 175.795 150.78 175.361 150.786 174.927C150.779 175.362 150.772 175.796 150.766 176.23Z" fill="black"/>
<path fill-rule="evenodd" clip-rule="evenodd" d="M188.048 158.878C188.482 158.835 188.917 158.793 189.35 158.75C188.916 158.793 188.482 158.835 188.048 158.878Z" fill="black"/>
<path fill-rule="evenodd" clip-rule="evenodd" d="M217.794 151.164C217.82 150.73 217.846 150.295 217.872 149.862C217.846 150.297 217.82 150.731 217.794 151.164Z" fill="black"/>
<path fill-rule="evenodd" clip-rule="evenodd" d="M179.259 148.077C178.933 148.074 178.606 148.07 178.283 148.067C178.611 148.07 178.935 148.074 179.259 148.077Z" fill="black"/>
<path fill-rule="evenodd" clip-rule="evenodd" d="M150.8 200.644C150.784 200.317 150.768 199.992 150.752 199.667C150.768 199.993 150.784 200.319 150.8 200.644Z" fill="black"/>
<path fill-rule="evenodd" clip-rule="evenodd" d="M187.297 184.042C188.009 185.806 187.609 184.557 187.627 184.964C187.021 185.046 186.911 184.738 187.297 184.042Z" fill="black"/>
<path fill-rule="evenodd" clip-rule="evenodd" d="M157.449 146.462C157.123 146.451 156.796 146.439 156.473 146.427C156.801 146.438 157.125 146.45 157.449 146.462Z" fill="black"/>
<path fill-rule="evenodd" clip-rule="evenodd" d="M223.987 113.404C224.008 112.97 224.029 112.536 224.049 112.102C224.028 112.537 224.007 112.97 223.987 113.404Z" fill="black"/>
<path fill-rule="evenodd" clip-rule="evenodd" d="M150.778 197.389C150.777 196.954 150.775 196.52 150.774 196.086C150.775 196.522 150.776 196.955 150.778 197.389Z" fill="black"/>
<path fill-rule="evenodd" clip-rule="evenodd" d="M150.742 187.623C150.765 187.297 150.788 186.971 150.81 186.646C150.787 186.972 150.765 187.298 150.742 187.623Z" fill="black"/>
<path fill-rule="evenodd" clip-rule="evenodd" d="M218.439 144.979C218.469 144.654 218.5 144.328 218.53 144.003C218.5 144.329 218.469 144.654 218.439 144.979Z" fill="black"/>
<path fill-rule="evenodd" clip-rule="evenodd" d="M146.5 188.599C146.529 188.926 146.559 189.252 146.588 189.576C146.558 189.25 146.529 188.925 146.5 188.599Z" fill="black"/>
<path fill-rule="evenodd" clip-rule="evenodd" d="M145.845 185.995C145.877 186.321 145.909 186.647 145.942 186.972C145.909 186.645 145.877 186.32 145.845 185.995Z" fill="black"/>
<path fill-rule="evenodd" clip-rule="evenodd" d="M210.961 141.399C210.985 141.073 211.009 140.748 211.034 140.422C211.009 140.748 210.985 141.074 210.961 141.399Z" fill="black"/>
<path fill-rule="evenodd" clip-rule="evenodd" d="M44.8188 185.558C45.2526 185.524 45.6868 185.489 46.1209 185.456C45.6858 185.49 45.2521 185.524 44.8188 185.558Z" fill="black"/>
<path fill-rule="evenodd" clip-rule="evenodd" d="M208.086 193.482C208.074 193.808 208.061 194.135 208.049 194.459C208.062 194.132 208.074 193.807 208.086 193.482Z" fill="black"/>
<path fill-rule="evenodd" clip-rule="evenodd" d="M213.24 194.459C213.264 194.133 213.288 193.807 213.312 193.482C213.288 193.808 213.264 194.133 213.24 194.459Z" fill="black"/>
<path fill-rule="evenodd" clip-rule="evenodd" d="M211.271 140.097C211.306 139.771 211.34 139.445 211.374 139.12C211.34 139.446 211.306 139.772 211.271 140.097Z" fill="black"/>
<path fill-rule="evenodd" clip-rule="evenodd" d="M47.4233 185.245C47.8575 185.203 48.2917 185.16 48.7254 185.117C48.2917 185.16 47.8571 185.203 47.4233 185.245Z" fill="black"/>
<path fill-rule="evenodd" clip-rule="evenodd" d="M185.444 147.743C185.226 147.745 185.008 147.748 184.793 147.75C185.012 147.748 185.228 147.745 185.444 147.743Z" fill="black"/>
<path fill-rule="evenodd" clip-rule="evenodd" d="M150.778 184.693C150.777 184.367 150.775 184.041 150.774 183.717C150.775 184.043 150.777 184.368 150.778 184.693Z" fill="black"/>
<path fill-rule="evenodd" clip-rule="evenodd" d="M213.953 184.042C213.837 183.705 213.78 183.374 214.003 183.065C213.987 183.391 213.97 183.717 213.953 184.042Z" fill="black"/>
<path fill-rule="evenodd" clip-rule="evenodd" d="M208.407 177.857C208.398 178.183 208.388 178.509 208.379 178.834C208.389 178.507 208.398 178.182 208.407 177.857Z" fill="black"/>
<path fill-rule="evenodd" clip-rule="evenodd" d="M208.688 210.084C208.709 210.409 208.729 210.736 208.749 211.06C208.729 210.734 208.709 210.409 208.688 210.084Z" fill="black"/>
<path fill-rule="evenodd" clip-rule="evenodd" d="M232.645 91.6875C232.97 91.734 233.296 91.7806 233.621 91.8265C233.295 91.7799 232.97 91.7337 232.645 91.6875Z" fill="black"/>
<path fill-rule="evenodd" clip-rule="evenodd" d="M231.342 91.7178C231.779 91.7441 232.259 91.5342 232.644 91.8418L231.342 91.7178Z" fill="black"/>
<path fill-rule="evenodd" clip-rule="evenodd" d="M175.678 160.445C176.112 160.443 176.547 160.441 176.98 160.438C176.546 160.441 176.112 160.443 175.678 160.445Z" fill="black"/>
<path fill-rule="evenodd" clip-rule="evenodd" d="M185.444 91.375L186.746 91.488C186.311 91.4502 185.878 91.4128 185.444 91.375Z" fill="black"/>
<path fill-rule="evenodd" clip-rule="evenodd" d="M163.959 160.357C164.394 160.359 164.828 160.361 165.262 160.363C164.826 160.572 164.392 160.593 163.959 160.357Z" fill="black"/>
<path fill-rule="evenodd" clip-rule="evenodd" d="M152.116 214.967C152.091 214.64 152.066 214.314 152.041 213.99C152.066 214.317 152.091 214.641 152.116 214.967Z" fill="black"/>
<path fill-rule="evenodd" clip-rule="evenodd" d="M199.597 91.9197C199.602 91.5936 199.607 91.2679 199.611 90.9431C199.607 91.2696 199.602 91.5949 199.597 91.9197Z" fill="black"/>
<path fill-rule="evenodd" clip-rule="evenodd" d="M172.098 160.494C172.532 160.459 172.966 160.424 173.4 160.389C172.965 160.424 172.532 160.459 172.098 160.494Z" fill="black"/>
<path fill-rule="evenodd" clip-rule="evenodd" d="M209.033 217.896C209.04 218.222 209.048 218.548 209.055 218.873C209.048 218.546 209.04 218.221 209.033 217.896Z" fill="black"/>
<path fill-rule="evenodd" clip-rule="evenodd" d="M215.835 166.79C215.865 166.464 215.895 166.138 215.925 165.813C215.895 166.139 215.865 166.464 215.835 166.79Z" fill="black"/>
<path fill-rule="evenodd" clip-rule="evenodd" d="M230.817 79.8755C230.842 79.5495 230.867 79.2238 230.891 78.8989C230.867 79.225 230.842 79.5502 230.817 79.8755Z" fill="black"/>
<path fill-rule="evenodd" clip-rule="evenodd" d="M199.92 51.8806C199.927 52.2064 199.932 52.5326 199.939 52.8572C199.933 52.5306 199.927 52.2056 199.92 51.8806Z" fill="black"/>
<path fill-rule="evenodd" clip-rule="evenodd" d="M188.374 45.8042C188.808 45.8403 189.242 45.8768 189.676 45.9126C189.242 45.8765 188.808 45.8403 188.374 45.8042Z" fill="black"/>
<path fill-rule="evenodd" clip-rule="evenodd" d="M123.27 230.818C123.704 230.775 124.137 230.733 124.572 230.69C124.137 230.733 123.704 230.776 123.27 230.818Z" fill="black"/>
<path fill-rule="evenodd" clip-rule="evenodd" d="M189.025 42.6037C188.807 42.6034 188.588 42.603 188.374 42.603C188.592 42.6037 188.809 42.6037 189.025 42.6037Z" fill="black"/>
<path fill-rule="evenodd" clip-rule="evenodd" d="M108.947 235.058C109.381 234.834 109.815 234.898 110.249 235.059C109.815 235.059 109.38 235.058 108.947 235.058Z" fill="black"/>
<path fill-rule="evenodd" clip-rule="evenodd" d="M277.892 210.557C277.457 210.567 277.022 210.577 276.59 210.587C277.026 210.577 277.459 210.567 277.892 210.557Z" fill="black"/>
<path fill-rule="evenodd" clip-rule="evenodd" d="M271.381 204.101C271.924 204.06 272.466 204.018 273.009 203.977C272.503 204.295 271.924 204.06 271.381 204.101Z" fill="black"/>
<path fill-rule="evenodd" clip-rule="evenodd" d="M265.197 204.772C265.739 204.732 266.282 204.693 266.824 204.654C266.282 204.693 265.739 204.732 265.197 204.772Z" fill="black"/>
<path fill-rule="evenodd" clip-rule="evenodd" d="M258.361 210.624C258.795 210.59 259.229 210.555 259.663 210.521C259.229 210.555 258.795 210.589 258.361 210.624Z" fill="black"/>
<path fill-rule="evenodd" clip-rule="evenodd" d="M259.988 210.304C260.422 210.266 260.856 210.228 261.29 210.189C260.856 210.227 260.423 210.266 259.988 210.304Z" fill="black"/>
<path fill-rule="evenodd" clip-rule="evenodd" d="M262.267 199.176C261.941 199.178 261.614 199.18 261.291 199.182C261.618 199.179 261.943 199.177 262.267 199.176Z" fill="black"/>
<path fill-rule="evenodd" clip-rule="evenodd" d="M270.405 217.109C270.839 217.073 271.273 217.035 271.707 216.999C271.302 217.284 270.844 217.12 270.405 217.109Z" fill="black"/>
<path fill-rule="evenodd" clip-rule="evenodd" d="M256.408 185.833C256.081 185.833 255.754 185.832 255.431 185.832C255.759 185.832 256.084 185.833 256.408 185.833Z" fill="black"/>
<path fill-rule="evenodd" clip-rule="evenodd" d="M253.153 186.482C252.935 186.483 252.717 186.484 252.501 186.485C252.72 186.484 252.936 186.483 253.153 186.482Z" fill="black"/>
<path fill-rule="evenodd" clip-rule="evenodd" d="M245.34 187.389C245.231 187.656 244.656 187.622 244.69 187.347C244.907 187.361 245.123 187.375 245.34 187.389Z" fill="black"/>
<path fill-rule="evenodd" clip-rule="evenodd" d="M230.183 188.599C230.196 188.925 230.21 189.251 230.223 189.576C230.209 189.25 230.196 188.924 230.183 188.599Z" fill="black"/>
<path fill-rule="evenodd" clip-rule="evenodd" d="M274.637 190.325C274.962 190.319 275.288 190.314 275.613 190.309C275.292 190.538 274.966 190.506 274.637 190.325Z" fill="black"/>
<path fill-rule="evenodd" clip-rule="evenodd" d="M262.267 185.502C262.049 185.506 261.831 185.509 261.616 185.512C261.835 185.509 262.051 185.506 262.267 185.502Z" fill="black"/>
<path fill-rule="evenodd" clip-rule="evenodd" d="M253.803 206.076C254.237 206.035 254.672 205.994 255.105 205.954C254.671 205.994 254.237 206.035 253.803 206.076Z" fill="black"/>
<path fill-rule="evenodd" clip-rule="evenodd" d="M258.361 218.452C258.796 218.294 259.23 218.239 259.663 218.456C259.229 218.455 258.795 218.454 258.361 218.452Z" fill="black"/>
<path fill-rule="evenodd" clip-rule="evenodd" d="M257.671 173.582L257.059 173.371C257.818 173.361 258.578 173.352 259.337 173.343C259.339 173.343 257.758 173.589 257.671 173.582Z" fill="black"/>
<path fill-rule="evenodd" clip-rule="evenodd" d="M251.85 167.929C251.306 167.929 250.763 167.929 250.223 167.928C250.767 167.929 251.309 167.929 251.85 167.929Z" fill="black"/>
<path fill-rule="evenodd" clip-rule="evenodd" d="M231.342 180.372C231.884 180.156 232.426 180.198 232.97 180.367C232.427 180.368 231.885 180.37 231.342 180.372Z" fill="black"/>
<path fill-rule="evenodd" clip-rule="evenodd" d="M264.22 175.084C263.894 175.088 263.567 175.092 263.244 175.096C263.571 175.092 263.896 175.088 264.22 175.084Z" fill="black"/>
<path fill-rule="evenodd" clip-rule="evenodd" d="M257.384 170.805C257.927 170.841 258.47 170.876 259.012 170.912C258.469 170.876 257.927 170.841 257.384 170.805Z" fill="black"/>
<path fill-rule="evenodd" clip-rule="evenodd" d="M251.199 170.479C251.634 170.515 252.067 170.551 252.501 170.586C252.067 170.55 251.633 170.515 251.199 170.479Z" fill="black"/>
<path fill-rule="evenodd" clip-rule="evenodd" d="M245.014 176.725C244.796 176.72 244.579 176.715 244.363 176.711C244.582 176.715 244.798 176.72 245.014 176.725Z" fill="black"/>
<path fill-rule="evenodd" clip-rule="evenodd" d="M251.85 173.483C251.632 173.469 251.414 173.456 251.199 173.442C251.418 173.456 251.634 173.469 251.85 173.483Z" fill="black"/>
<path fill-rule="evenodd" clip-rule="evenodd" d="M247.618 173.472C247.4 173.465 247.182 173.459 246.967 173.454C247.186 173.46 247.402 173.466 247.618 173.472Z" fill="black"/>
<path fill-rule="evenodd" clip-rule="evenodd" d="M259.337 173.169C259.337 173.253 260.318 172.825 260.314 173.223L259.337 173.169Z" fill="black"/>
<path fill-rule="evenodd" clip-rule="evenodd" d="M255.757 167.928C255.538 167.929 255.321 167.929 255.105 167.929C255.325 167.929 255.54 167.929 255.757 167.928Z" fill="black"/>
<path fill-rule="evenodd" clip-rule="evenodd" d="M140.197 152.491C140.549 151.053 140.453 149.927 141.709 150.847C142.398 151.351 143.534 153.91 143.447 154.777C143.341 155.847 142.854 156.273 141.847 155.933C140.69 155.541 140.231 153.567 140.197 152.491Z" fill="black"/>
<path fill-rule="evenodd" clip-rule="evenodd" d="M203.618 143.758C206.533 143.758 205.261 146.86 202.831 146.93C201.714 146.962 200.108 146.741 200.47 145.247C200.663 144.449 203.496 143.374 203.618 143.758Z" fill="black"/>
<path fill-rule="evenodd" clip-rule="evenodd" d="M172.35 149.862C174.454 150.88 171.493 155.352 169.581 154.245C167.132 152.828 171.484 150.5 172.35 149.862Z" fill="black"/>
<path fill-rule="evenodd" clip-rule="evenodd" d="M167.229 154.094C167.918 154.846 171.022 157.393 169.311 158.417C167.207 159.677 165.606 155.519 167.229 154.094Z" fill="black"/>
<path fill-rule="evenodd" clip-rule="evenodd" d="M131.954 152.141C131.269 150.817 132.211 147.353 134.301 147.986C136.405 148.623 133.111 151.789 131.954 152.141Z" fill="black"/>
<path fill-rule="evenodd" clip-rule="evenodd" d="M178.393 152.904C179.758 152.354 179.498 153.98 179.705 154.504C179.938 155.1 181.14 156.551 180.839 157.186C180.391 158.127 179.322 157.527 178.741 156.916C177.723 155.845 177.796 154.127 178.393 152.904Z" fill="black"/>
<path fill-rule="evenodd" clip-rule="evenodd" d="M157.593 154.411C156.455 154.411 153.74 151.131 155.335 150.581C157.315 149.898 158.971 154.652 157.593 154.411Z" fill="black"/>
<path fill-rule="evenodd" clip-rule="evenodd" d="M196.905 149.211C197.947 149.468 199.326 152.418 197.756 152.76C196.017 153.139 195.707 150.027 196.905 149.211Z" fill="black"/>
<path fill-rule="evenodd" clip-rule="evenodd" d="M190.588 154.745C189.771 153.172 189.57 149.803 191.565 152.507C191.997 153.093 192.443 152.856 192.221 153.822C192.027 154.665 191.253 154.745 190.588 154.745Z" fill="black"/>
<path fill-rule="evenodd" clip-rule="evenodd" d="M147.549 146.607C148.381 147.861 148.136 151.792 146.395 149.467C145.655 148.478 146.165 146.654 147.549 146.607Z" fill="black"/>
<path fill-rule="evenodd" clip-rule="evenodd" d="M189.411 28.475C191.027 28.0578 191.415 31.8674 190.472 32.2873C189.153 32.875 189.318 29.1122 189.411 28.475Z" fill="black"/>
<path fill-rule="evenodd" clip-rule="evenodd" d="M291.615 222.014C290.115 221.926 288.014 221.517 290.286 220.453C291.727 219.779 293.87 219.732 295.392 220.008C296.441 220.199 298.015 221.068 296.414 222.196C295.477 222.855 292.754 222.046 291.615 222.014Z" fill="black"/>
<path fill-rule="evenodd" clip-rule="evenodd" d="M289.933 224.732C289.5 224.683 289.067 224.634 288.634 224.586C288.982 223.955 289.992 223.822 289.933 224.732Z" fill="black"/>
<path fill-rule="evenodd" clip-rule="evenodd" d="M291.889 221.951C292.324 221.961 292.759 221.97 293.191 221.979C292.755 221.97 292.322 221.961 291.889 221.951Z" fill="black"/>
</svg>
